G04 #@! TF.FileFunction,Paste,Top*
%FSLAX46Y46*%
G04 Gerber Fmt 4.6, Leading zero omitted, Abs format (unit mm)*
G04 Created by KiCad (PCBNEW 4.0.2-stable) date 2016-06-02 00:43:14*
%MOMM*%
G01*
G04 APERTURE LIST*
%ADD10C,0.100000*%
%ADD11R,0.740000X2.550000*%
%ADD12R,0.400000X0.600000*%
%ADD13R,1.000000X1.250000*%
%ADD14R,0.700000X0.250000*%
%ADD15R,0.250000X0.700000*%
%ADD16R,1.035000X1.035000*%
%ADD17R,1.350000X0.400000*%
%ADD18R,0.600000X0.500000*%
%ADD19R,0.500000X0.600000*%
%ADD20R,0.800000X0.750000*%
%ADD21R,0.750000X0.800000*%
%ADD22R,0.500000X0.900000*%
%ADD23R,0.900000X0.500000*%
%ADD24R,1.200000X1.500000*%
%ADD25R,0.350000X1.000000*%
%ADD26R,1.300000X0.700000*%
%ADD27R,0.600000X0.400000*%
%ADD28R,1.060000X0.650000*%
%ADD29O,0.850000X0.300000*%
%ADD30O,0.300000X0.850000*%
%ADD31R,1.005000X1.005000*%
%ADD32R,0.500000X0.280000*%
%ADD33R,0.250000X0.600000*%
%ADD34R,0.900000X2.300000*%
%ADD35R,1.000000X1.200000*%
%ADD36R,1.600000X0.400000*%
%ADD37R,1.800000X0.600000*%
%ADD38R,2.800000X1.000000*%
%ADD39R,2.999740X1.600200*%
G04 APERTURE END LIST*
D10*
D11*
X65210000Y-45905000D03*
X65210000Y-42095000D03*
X66480000Y-45905000D03*
X66480000Y-42095000D03*
X67750000Y-45905000D03*
X67750000Y-42095000D03*
X69020000Y-45905000D03*
X69020000Y-42095000D03*
X70290000Y-45905000D03*
X70290000Y-42095000D03*
D12*
X53050000Y-40900000D03*
X53950000Y-40900000D03*
D13*
X62500000Y-48750000D03*
X64500000Y-48750000D03*
D14*
X55350000Y-42600000D03*
X55350000Y-43100000D03*
X55350000Y-43600000D03*
X55350000Y-44100000D03*
X55350000Y-44600000D03*
X55350000Y-45100000D03*
X55350000Y-45600000D03*
X55350000Y-46100000D03*
D15*
X56000000Y-46750000D03*
X56500000Y-46750000D03*
X57000000Y-46750000D03*
X57500000Y-46750000D03*
X58000000Y-46750000D03*
X58500000Y-46750000D03*
X59000000Y-46750000D03*
X59500000Y-46750000D03*
D14*
X60150000Y-46100000D03*
X60150000Y-45600000D03*
X60150000Y-45100000D03*
X60150000Y-44600000D03*
X60150000Y-44100000D03*
X60150000Y-43600000D03*
X60150000Y-43100000D03*
X60150000Y-42600000D03*
D15*
X59500000Y-41950000D03*
X59000000Y-41950000D03*
X58500000Y-41950000D03*
X58000000Y-41950000D03*
X57500000Y-41950000D03*
X57000000Y-41950000D03*
X56500000Y-41950000D03*
X56000000Y-41950000D03*
D16*
X58612500Y-45212500D03*
X58612500Y-43487500D03*
X56887500Y-45212500D03*
X56887500Y-43487500D03*
D17*
X45062540Y-53699100D03*
X45062540Y-54349100D03*
X45062540Y-54999100D03*
X45062540Y-55649100D03*
X45062540Y-56299100D03*
D18*
X53450000Y-45800000D03*
X52350000Y-45800000D03*
D19*
X62250000Y-50450000D03*
X62250000Y-51550000D03*
D18*
X52300000Y-41000000D03*
X51200000Y-41000000D03*
D19*
X59750000Y-50450000D03*
X59750000Y-51550000D03*
X61000000Y-50450000D03*
X61000000Y-51550000D03*
D20*
X49000000Y-51500000D03*
X50500000Y-51500000D03*
D19*
X65250000Y-52050000D03*
X65250000Y-50950000D03*
X46500000Y-48200000D03*
X46500000Y-49300000D03*
D18*
X60550000Y-55250000D03*
X59450000Y-55250000D03*
D20*
X56000000Y-59000000D03*
X57500000Y-59000000D03*
D19*
X63000000Y-58850000D03*
X63000000Y-57750000D03*
D13*
X54750000Y-58750000D03*
X52750000Y-58750000D03*
D18*
X52700000Y-47750000D03*
X53800000Y-47750000D03*
D19*
X66750000Y-52050000D03*
X66750000Y-50950000D03*
X59250000Y-59300000D03*
X59250000Y-58200000D03*
X59250000Y-57300000D03*
X59250000Y-56200000D03*
D21*
X51500000Y-48000000D03*
X51500000Y-49500000D03*
D18*
X70950000Y-58500000D03*
X72050000Y-58500000D03*
D19*
X68500000Y-52050000D03*
X68500000Y-50950000D03*
X62500000Y-53200000D03*
X62500000Y-54300000D03*
D21*
X51500000Y-47000000D03*
X51500000Y-45500000D03*
D13*
X59250000Y-54000000D03*
X61250000Y-54000000D03*
X43500000Y-41000000D03*
X41500000Y-41000000D03*
D19*
X74000000Y-49050000D03*
X74000000Y-47950000D03*
D22*
X46500000Y-51500000D03*
X48000000Y-51500000D03*
D23*
X46500000Y-44750000D03*
X46500000Y-46250000D03*
D22*
X59500000Y-52500000D03*
X61000000Y-52500000D03*
D24*
X56750000Y-57550000D03*
X56750000Y-54850000D03*
D25*
X72150000Y-55100000D03*
X71500000Y-55100000D03*
X70850000Y-55100000D03*
X70850000Y-56900000D03*
X71500000Y-56900000D03*
X72150000Y-56900000D03*
D26*
X46250000Y-43450000D03*
X46250000Y-41550000D03*
D27*
X65750000Y-48050000D03*
X65750000Y-48950000D03*
X67000000Y-48050000D03*
X67000000Y-48950000D03*
X68250000Y-48050000D03*
X68250000Y-48950000D03*
X67750000Y-51950000D03*
X67750000Y-51050000D03*
D12*
X61550000Y-55250000D03*
X62450000Y-55250000D03*
D27*
X51750000Y-56800000D03*
X51750000Y-57700000D03*
X58500000Y-48800000D03*
X58500000Y-49700000D03*
X59750000Y-49700000D03*
X59750000Y-48800000D03*
X61000000Y-49700000D03*
X61000000Y-48800000D03*
D12*
X53700000Y-46750000D03*
X52800000Y-46750000D03*
D27*
X51750000Y-55700000D03*
X51750000Y-54800000D03*
D28*
X47900000Y-56550000D03*
X47900000Y-57500000D03*
X47900000Y-58450000D03*
X50100000Y-58450000D03*
X50100000Y-56550000D03*
X50100000Y-57500000D03*
X47900000Y-53050000D03*
X47900000Y-54000000D03*
X47900000Y-54950000D03*
X50100000Y-54950000D03*
X50100000Y-53050000D03*
D29*
X64550000Y-54500000D03*
X64550000Y-55000000D03*
X64550000Y-55500000D03*
X64550000Y-56000000D03*
X64550000Y-56500000D03*
X64550000Y-57000000D03*
X64550000Y-57500000D03*
D30*
X65500000Y-58450000D03*
X66000000Y-58450000D03*
X66500000Y-58450000D03*
X67000000Y-58450000D03*
X67500000Y-58450000D03*
X68000000Y-58450000D03*
X68500000Y-58450000D03*
D29*
X69450000Y-57500000D03*
X69450000Y-57000000D03*
X69450000Y-56500000D03*
X69450000Y-56000000D03*
X69450000Y-55500000D03*
X69450000Y-55000000D03*
X69450000Y-54500000D03*
D30*
X68500000Y-53550000D03*
X68000000Y-53550000D03*
X67500000Y-53550000D03*
X67000000Y-53550000D03*
X66500000Y-53550000D03*
X66000000Y-53550000D03*
X65500000Y-53550000D03*
D31*
X67837500Y-56837500D03*
X67837500Y-55162500D03*
X66162500Y-56837500D03*
X66162500Y-55162500D03*
D32*
X54700000Y-57500000D03*
X54700000Y-57000000D03*
X54700000Y-56500000D03*
X54700000Y-56000000D03*
X54700000Y-55500000D03*
X54700000Y-55000000D03*
X52800000Y-55000000D03*
X52800000Y-55500000D03*
X52800000Y-56000000D03*
X52800000Y-56500000D03*
X52800000Y-57000000D03*
X52800000Y-57500000D03*
D33*
X53500000Y-54850000D03*
X54000000Y-54850000D03*
X53500000Y-57650000D03*
X54000000Y-57650000D03*
D34*
X53750000Y-56250000D03*
D28*
X47900000Y-48050000D03*
X47900000Y-49000000D03*
X47900000Y-49950000D03*
X50100000Y-49950000D03*
X50100000Y-48050000D03*
X50100000Y-49000000D03*
X50100000Y-43450000D03*
X50100000Y-42500000D03*
X50100000Y-41550000D03*
X47900000Y-41550000D03*
X47900000Y-43450000D03*
D35*
X53150000Y-44100000D03*
X53150000Y-42400000D03*
X51850000Y-42400000D03*
X51850000Y-44100000D03*
X60600000Y-56900000D03*
X60600000Y-58600000D03*
X61900000Y-58600000D03*
X61900000Y-56900000D03*
D27*
X73500000Y-53100000D03*
X74500000Y-53100000D03*
D36*
X74000000Y-49900000D03*
D21*
X45250000Y-48000000D03*
X45250000Y-49500000D03*
D37*
X44700000Y-44550000D03*
X44700000Y-45800000D03*
X44700000Y-47050000D03*
D38*
X41500000Y-48800000D03*
X41500000Y-42800000D03*
D28*
X50100000Y-46700000D03*
X50100000Y-45750000D03*
X50100000Y-44800000D03*
X47900000Y-44800000D03*
X47900000Y-46700000D03*
X47900000Y-45750000D03*
D39*
X52800360Y-51250000D03*
X57199640Y-51250000D03*
D10*
G36*
X73252513Y-54921751D02*
X72828249Y-54497487D01*
X73111091Y-54214645D01*
X73535355Y-54638909D01*
X73252513Y-54921751D01*
X73252513Y-54921751D01*
G37*
G36*
X73888909Y-54285355D02*
X73464645Y-53861091D01*
X73747487Y-53578249D01*
X74171751Y-54002513D01*
X73888909Y-54285355D01*
X73888909Y-54285355D01*
G37*
M02*
