G04 #@! TF.FileFunction,Soldermask,Top*
%FSLAX46Y46*%
G04 Gerber Fmt 4.6, Leading zero omitted, Abs format (unit mm)*
G04 Created by KiCad (PCBNEW 4.0.2-stable) date 2016-06-02 00:43:14*
%MOMM*%
G01*
G04 APERTURE LIST*
%ADD10C,0.100000*%
%ADD11R,0.840000X2.650000*%
%ADD12C,1.600000*%
%ADD13R,0.500000X0.700000*%
%ADD14R,1.100000X1.350000*%
%ADD15R,0.800000X0.350000*%
%ADD16R,0.350000X0.800000*%
%ADD17R,1.825000X1.825000*%
%ADD18R,1.450000X0.500000*%
%ADD19C,1.350000*%
%ADD20C,1.650000*%
%ADD21R,0.700000X0.600000*%
%ADD22R,0.600000X0.700000*%
%ADD23R,0.900000X0.850000*%
%ADD24R,0.850000X0.900000*%
%ADD25R,0.600000X1.000000*%
%ADD26R,1.000000X0.600000*%
%ADD27R,1.300000X1.600000*%
%ADD28R,0.450000X1.100000*%
%ADD29R,1.400000X0.800000*%
%ADD30R,0.700000X0.500000*%
%ADD31R,1.160000X0.750000*%
%ADD32O,0.950000X0.400000*%
%ADD33O,0.400000X0.950000*%
%ADD34R,1.775000X1.775000*%
%ADD35R,0.600000X0.380000*%
%ADD36R,0.350000X0.700000*%
%ADD37R,1.000000X2.400000*%
%ADD38R,1.100000X1.300000*%
%ADD39R,1.700000X0.500000*%
%ADD40R,1.900000X0.700000*%
%ADD41R,2.900000X1.100000*%
%ADD42R,3.099740X1.700200*%
G04 APERTURE END LIST*
D10*
D11*
X65210000Y-45905000D03*
X65210000Y-42095000D03*
X66480000Y-45905000D03*
X66480000Y-42095000D03*
X67750000Y-45905000D03*
X67750000Y-42095000D03*
X69020000Y-45905000D03*
X69020000Y-42095000D03*
X70290000Y-45905000D03*
X70290000Y-42095000D03*
D12*
X72850000Y-44000000D03*
X62650000Y-44000000D03*
D13*
X53050000Y-40900000D03*
X53950000Y-40900000D03*
D14*
X62500000Y-48750000D03*
X64500000Y-48750000D03*
D15*
X55350000Y-42600000D03*
X55350000Y-43100000D03*
X55350000Y-43600000D03*
X55350000Y-44100000D03*
X55350000Y-44600000D03*
X55350000Y-45100000D03*
X55350000Y-45600000D03*
X55350000Y-46100000D03*
D16*
X56000000Y-46750000D03*
X56500000Y-46750000D03*
X57000000Y-46750000D03*
X57500000Y-46750000D03*
X58000000Y-46750000D03*
X58500000Y-46750000D03*
X59000000Y-46750000D03*
X59500000Y-46750000D03*
D15*
X60150000Y-46100000D03*
X60150000Y-45600000D03*
X60150000Y-45100000D03*
X60150000Y-44600000D03*
X60150000Y-44100000D03*
X60150000Y-43600000D03*
X60150000Y-43100000D03*
X60150000Y-42600000D03*
D16*
X59500000Y-41950000D03*
X59000000Y-41950000D03*
X58500000Y-41950000D03*
X58000000Y-41950000D03*
X57500000Y-41950000D03*
X57000000Y-41950000D03*
X56500000Y-41950000D03*
X56000000Y-41950000D03*
D17*
X58612500Y-45212500D03*
X58612500Y-43487500D03*
X56887500Y-45212500D03*
X56887500Y-43487500D03*
D18*
X45062540Y-53699100D03*
X45062540Y-54349100D03*
X45062540Y-54999100D03*
X45062540Y-55649100D03*
X45062540Y-56299100D03*
D19*
X45062540Y-52499100D03*
X45062540Y-57499100D03*
D20*
X42362540Y-51499100D03*
X42362540Y-58499100D03*
D21*
X53450000Y-45800000D03*
X52350000Y-45800000D03*
D22*
X62250000Y-50450000D03*
X62250000Y-51550000D03*
D21*
X52300000Y-41000000D03*
X51200000Y-41000000D03*
D22*
X59750000Y-50450000D03*
X59750000Y-51550000D03*
X61000000Y-50450000D03*
X61000000Y-51550000D03*
D23*
X49000000Y-51500000D03*
X50500000Y-51500000D03*
D22*
X65250000Y-52050000D03*
X65250000Y-50950000D03*
X46500000Y-48200000D03*
X46500000Y-49300000D03*
D21*
X60550000Y-55250000D03*
X59450000Y-55250000D03*
D23*
X56000000Y-59000000D03*
X57500000Y-59000000D03*
D22*
X63000000Y-58850000D03*
X63000000Y-57750000D03*
D14*
X54750000Y-58750000D03*
X52750000Y-58750000D03*
D21*
X52700000Y-47750000D03*
X53800000Y-47750000D03*
D22*
X66750000Y-52050000D03*
X66750000Y-50950000D03*
X59250000Y-59300000D03*
X59250000Y-58200000D03*
X59250000Y-57300000D03*
X59250000Y-56200000D03*
D24*
X51500000Y-48000000D03*
X51500000Y-49500000D03*
D21*
X70950000Y-58500000D03*
X72050000Y-58500000D03*
D22*
X68500000Y-52050000D03*
X68500000Y-50950000D03*
X62500000Y-53200000D03*
X62500000Y-54300000D03*
D24*
X51500000Y-47000000D03*
X51500000Y-45500000D03*
D14*
X59250000Y-54000000D03*
X61250000Y-54000000D03*
X43500000Y-41000000D03*
X41500000Y-41000000D03*
D22*
X74000000Y-49050000D03*
X74000000Y-47950000D03*
D25*
X46500000Y-51500000D03*
X48000000Y-51500000D03*
D26*
X46500000Y-44750000D03*
X46500000Y-46250000D03*
D25*
X59500000Y-52500000D03*
X61000000Y-52500000D03*
D27*
X56750000Y-57550000D03*
X56750000Y-54850000D03*
D28*
X72150000Y-55100000D03*
X71500000Y-55100000D03*
X70850000Y-55100000D03*
X70850000Y-56900000D03*
X71500000Y-56900000D03*
X72150000Y-56900000D03*
D29*
X46250000Y-43450000D03*
X46250000Y-41550000D03*
D30*
X65750000Y-48050000D03*
X65750000Y-48950000D03*
X67000000Y-48050000D03*
X67000000Y-48950000D03*
X68250000Y-48050000D03*
X68250000Y-48950000D03*
X67750000Y-51950000D03*
X67750000Y-51050000D03*
D13*
X61550000Y-55250000D03*
X62450000Y-55250000D03*
D30*
X51750000Y-56800000D03*
X51750000Y-57700000D03*
X58500000Y-48800000D03*
X58500000Y-49700000D03*
X59750000Y-49700000D03*
X59750000Y-48800000D03*
X61000000Y-49700000D03*
X61000000Y-48800000D03*
D13*
X53700000Y-46750000D03*
X52800000Y-46750000D03*
D30*
X51750000Y-55700000D03*
X51750000Y-54800000D03*
D31*
X47900000Y-56550000D03*
X47900000Y-57500000D03*
X47900000Y-58450000D03*
X50100000Y-58450000D03*
X50100000Y-56550000D03*
X50100000Y-57500000D03*
X47900000Y-53050000D03*
X47900000Y-54000000D03*
X47900000Y-54950000D03*
X50100000Y-54950000D03*
X50100000Y-53050000D03*
D32*
X64550000Y-54500000D03*
X64550000Y-55000000D03*
X64550000Y-55500000D03*
X64550000Y-56000000D03*
X64550000Y-56500000D03*
X64550000Y-57000000D03*
X64550000Y-57500000D03*
D33*
X65500000Y-58450000D03*
X66000000Y-58450000D03*
X66500000Y-58450000D03*
X67000000Y-58450000D03*
X67500000Y-58450000D03*
X68000000Y-58450000D03*
X68500000Y-58450000D03*
D32*
X69450000Y-57500000D03*
X69450000Y-57000000D03*
X69450000Y-56500000D03*
X69450000Y-56000000D03*
X69450000Y-55500000D03*
X69450000Y-55000000D03*
X69450000Y-54500000D03*
D33*
X68500000Y-53550000D03*
X68000000Y-53550000D03*
X67500000Y-53550000D03*
X67000000Y-53550000D03*
X66500000Y-53550000D03*
X66000000Y-53550000D03*
X65500000Y-53550000D03*
D34*
X67837500Y-56837500D03*
X67837500Y-55162500D03*
X66162500Y-56837500D03*
X66162500Y-55162500D03*
D35*
X54700000Y-57500000D03*
X54700000Y-57000000D03*
X54700000Y-56500000D03*
X54700000Y-56000000D03*
X54700000Y-55500000D03*
X54700000Y-55000000D03*
X52800000Y-55000000D03*
X52800000Y-55500000D03*
X52800000Y-56000000D03*
X52800000Y-56500000D03*
X52800000Y-57000000D03*
X52800000Y-57500000D03*
D36*
X53500000Y-54850000D03*
X54000000Y-54850000D03*
X53500000Y-57650000D03*
X54000000Y-57650000D03*
D37*
X53750000Y-56250000D03*
D31*
X47900000Y-48050000D03*
X47900000Y-49000000D03*
X47900000Y-49950000D03*
X50100000Y-49950000D03*
X50100000Y-48050000D03*
X50100000Y-49000000D03*
X50100000Y-43450000D03*
X50100000Y-42500000D03*
X50100000Y-41550000D03*
X47900000Y-41550000D03*
X47900000Y-43450000D03*
D38*
X53150000Y-44100000D03*
X53150000Y-42400000D03*
X51850000Y-42400000D03*
X51850000Y-44100000D03*
X60600000Y-56900000D03*
X60600000Y-58600000D03*
X61900000Y-58600000D03*
X61900000Y-56900000D03*
D30*
X73500000Y-53100000D03*
X74500000Y-53100000D03*
D39*
X74000000Y-49900000D03*
D24*
X45250000Y-48000000D03*
X45250000Y-49500000D03*
D40*
X44700000Y-44550000D03*
X44700000Y-45800000D03*
X44700000Y-47050000D03*
D41*
X41500000Y-48800000D03*
X41500000Y-42800000D03*
D31*
X50100000Y-46700000D03*
X50100000Y-45750000D03*
X50100000Y-44800000D03*
X47900000Y-44800000D03*
X47900000Y-46700000D03*
X47900000Y-45750000D03*
D42*
X52800360Y-51250000D03*
X57199640Y-51250000D03*
D10*
G36*
X73252513Y-54992462D02*
X72757538Y-54497487D01*
X73111091Y-54143934D01*
X73606066Y-54638909D01*
X73252513Y-54992462D01*
X73252513Y-54992462D01*
G37*
G36*
X73888909Y-54356066D02*
X73393934Y-53861091D01*
X73747487Y-53507538D01*
X74242462Y-54002513D01*
X73888909Y-54356066D01*
X73888909Y-54356066D01*
G37*
M02*
