M48
;DRILL file {KiCad 4.0.2-stable} date 2016-06-02 00:43:21
;FORMAT={3:3/ absolute / metric / suppress leading zeros}
FMAT,2
METRIC,TZ
T1C0.300
T2C0.840
T3C0.850
T4C1.150
%
G90
G05
M71
T1
X40600Y-40800
X40600Y-41600
X40900Y-50000
X41700Y-50000
X42250Y-41000
X42500Y-50000
X43250Y-47000
X43400Y-50000
X44000Y-56250
X44500Y-41200
X44500Y-49500
X45200Y-40600
X46000Y-56500
X46100Y-40600
X46400Y-45600
X46500Y-50000
X47000Y-54000
X47033Y-48783
X47050Y-54750
X47200Y-40600
X47800Y-50600
X48100Y-40600
X48750Y-57500
X48800Y-56600
X48800Y-58500
X49100Y-40600
X49100Y-42400
X49800Y-51500
X50000Y-41000
X50100Y-44075
X50750Y-40500
X50752Y-45994
X51500Y-46200
X51550Y-58500
X51800Y-56400
X52100Y-49600
X52263Y-47497
X52275Y-46750
X52400Y-48600
X52500Y-45250
X53500Y-49900
X53600Y-41400
X53750Y-48250
X53750Y-55550
X53750Y-56250
X53750Y-56950
X54100Y-45000
X54200Y-42300
X54300Y-52400
X54400Y-49400
X54411Y-43411
X54500Y-45600
X54600Y-50900
X54700Y-41700
X55200Y-57800
X55300Y-42100
X55500Y-58300
X55700Y-53465
X55750Y-50250
X55900Y-47700
X56000Y-52500
X56500Y-50250
X56750Y-52500
X56888Y-43488
X56888Y-45213
X56975Y-47600
X57250Y-50250
X57500Y-52500
X57700Y-47900
X58250Y-59000
X58500Y-47500
X58500Y-58250
X58541Y-59581
X58613Y-43488
X58613Y-45213
X58750Y-55250
X58750Y-56250
X58750Y-57250
X59100Y-49200
X59100Y-51300
X59200Y-47500
X59250Y-50500
X59250Y-52750
X60200Y-46600
X60500Y-51500
X60500Y-54000
X60700Y-47500
X60800Y-43600
X60800Y-48200
X61025Y-44210
X61200Y-41900
X61474Y-48213
X61500Y-52250
X61500Y-52975
X61607Y-44500
X61750Y-50500
X61750Y-51250
X61900Y-41800
X61900Y-47100
X62184Y-53895
X62400Y-52700
X62500Y-47900
X62737Y-41066
X62750Y-56000
X63200Y-42100
X63200Y-51600
X63300Y-56500
X63300Y-58100
X63650Y-57451
X63800Y-50000
X63862Y-58727
X63900Y-44900
X64000Y-58000
X64025Y-50700
X64100Y-41400
X64300Y-46700
X64400Y-45400
X64500Y-50000
X64600Y-42000
X64600Y-47900
X64750Y-58250
X65200Y-50400
X65700Y-49500
X66163Y-55163
X66163Y-56838
X66375Y-48483
X66393Y-49406
X66800Y-59200
X67100Y-50300
X67250Y-52750
X67400Y-49600
X67500Y-59200
X67800Y-50400
X67837Y-55163
X67837Y-56838
X68500Y-43600
X68500Y-52750
X68600Y-59200
X69100Y-49500
X69100Y-50300
X69100Y-51000
X69146Y-51693
X69200Y-52400
X69300Y-53100
X69500Y-44200
X69500Y-48750
X69700Y-58800
X70000Y-53500
X70200Y-54900
X70250Y-44250
X70250Y-48750
X70300Y-59300
X70500Y-54000
X70750Y-53500
X70750Y-57800
X71000Y-42250
X71000Y-48750
X71100Y-59400
X71250Y-54000
X71300Y-43100
X71500Y-53500
X71500Y-57750
X71750Y-48750
X71900Y-46100
X72000Y-54000
X72100Y-40700
X72100Y-59300
X72250Y-57750
X72500Y-48750
X72500Y-53500
X72750Y-54000
X72800Y-41700
X72900Y-42600
X73000Y-40700
X73000Y-55500
X73000Y-56250
X73000Y-57000
X73000Y-57750
X73000Y-59300
X73250Y-48000
X73250Y-48750
X73250Y-53500
X73700Y-42100
X73750Y-55250
X73750Y-59500
X73800Y-42900
X73900Y-40700
X73900Y-45000
X74100Y-47100
X74250Y-54750
X74400Y-46300
X74500Y-41400
X74500Y-42200
X74500Y-43000
X74500Y-43800
X74500Y-44600
X74500Y-45400
X74500Y-55500
X74500Y-56250
X74500Y-57000
X74500Y-57750
X74500Y-58500
X74500Y-59250
X74572Y-53999
T2
X62650Y-44000
X72850Y-44000
T3
X45063Y-52499
X45063Y-57499
T4
X42363Y-51499
X42363Y-58499
T0
M30
