G04 #@! TF.FileFunction,Copper,L2,Inr,Signal*
%FSLAX46Y46*%
G04 Gerber Fmt 4.6, Leading zero omitted, Abs format (unit mm)*
G04 Created by KiCad (PCBNEW 4.0.2-stable) date 2016-06-02 00:43:14*
%MOMM*%
G01*
G04 APERTURE LIST*
%ADD10C,0.100000*%
%ADD11C,1.500000*%
%ADD12C,1.250000*%
%ADD13C,1.550000*%
%ADD14C,0.400000*%
%ADD15C,0.500000*%
%ADD16C,0.254000*%
G04 APERTURE END LIST*
D10*
D11*
X72850000Y-44000000D03*
X62650000Y-44000000D03*
D12*
X45062540Y-52499100D03*
X45062540Y-57499100D03*
D13*
X42362540Y-51499100D03*
X42362540Y-58499100D03*
D14*
X53750000Y-56950000D03*
X53750000Y-55550000D03*
X53750000Y-56250000D03*
D15*
X40900000Y-50000000D03*
X41700000Y-50000000D03*
X42500000Y-50000000D03*
X43400000Y-50000000D03*
X69700000Y-58800000D03*
X70300000Y-59300000D03*
X71100000Y-59400000D03*
X72100000Y-59300000D03*
X73000000Y-59300000D03*
X73900000Y-45000000D03*
X73800000Y-42900000D03*
X72900000Y-42600000D03*
X73700000Y-42100000D03*
X72800000Y-41700000D03*
X72100000Y-40700000D03*
X73000000Y-40700000D03*
X73900000Y-40700000D03*
X74500000Y-41400000D03*
X74500000Y-42200000D03*
X74500000Y-43000000D03*
X74500000Y-43800000D03*
X74500000Y-44600000D03*
X74500000Y-45400000D03*
X74400000Y-46300000D03*
X74100000Y-47100000D03*
X45200000Y-40600000D03*
X46100000Y-40600000D03*
X47200000Y-40600000D03*
X48100000Y-40600000D03*
X49100000Y-40600000D03*
X40600000Y-41600000D03*
X40600000Y-40800000D03*
X69100000Y-50300000D03*
X49800000Y-51500000D03*
X67800000Y-50400000D03*
X67100000Y-50300000D03*
X65200000Y-50400000D03*
X58612500Y-43487500D03*
X56887500Y-45212500D03*
X56887500Y-43487500D03*
X58612500Y-45212500D03*
X62184241Y-53894559D03*
X63300000Y-58100000D03*
X65700000Y-49500000D03*
X64600000Y-47900000D03*
X69300000Y-53100000D03*
X69200000Y-52400000D03*
X69145982Y-51693432D03*
X71000000Y-42250000D03*
X70250000Y-44250000D03*
X58750000Y-55250000D03*
X58750000Y-56250000D03*
X58500000Y-58250000D03*
X58250000Y-59000000D03*
X48750000Y-57500000D03*
X46000000Y-56500000D03*
X44000000Y-56250000D03*
X47050010Y-54750000D03*
X47000000Y-54000000D03*
X60500000Y-54000000D03*
X61750000Y-51250000D03*
X60500000Y-51500000D03*
X57500000Y-52500000D03*
X56750000Y-52500000D03*
X56000000Y-52500000D03*
X55750000Y-50250000D03*
X56500000Y-50250000D03*
X57250000Y-50250000D03*
X53750000Y-48250000D03*
X52275002Y-46750000D03*
X52500000Y-45250000D03*
X50750000Y-40500000D03*
X50000000Y-41000000D03*
X51500000Y-46199998D03*
X50751910Y-45994029D03*
X52100000Y-49600000D03*
X47032844Y-48782844D03*
X46500000Y-50000000D03*
X44500000Y-49500000D03*
X43250000Y-47000000D03*
X42250000Y-41000000D03*
X66162500Y-55162500D03*
X66162500Y-56837500D03*
X67837500Y-56837500D03*
X67837500Y-55162500D03*
X69100000Y-51000000D03*
X69100000Y-49500000D03*
X69500000Y-48750000D03*
X70250000Y-48750000D03*
X71000000Y-48750000D03*
X71750000Y-48750000D03*
X72500000Y-48750000D03*
X73250000Y-48750000D03*
X73250000Y-48000000D03*
X73750000Y-59500000D03*
X74500000Y-59250000D03*
X74500000Y-58500000D03*
X74500000Y-57750000D03*
X74500000Y-57000000D03*
X74500000Y-56250000D03*
X74500000Y-55500000D03*
X74571749Y-53999451D03*
X74250000Y-54750000D03*
X73750000Y-55250000D03*
X73000000Y-55500000D03*
X73000000Y-56250000D03*
X73000000Y-57000000D03*
X73000000Y-57750000D03*
X72250000Y-57750000D03*
X71500000Y-57750000D03*
X70750000Y-53500000D03*
X70000000Y-53500000D03*
X70500000Y-54000000D03*
X71250000Y-54000000D03*
X71500000Y-53500000D03*
X72500000Y-53500000D03*
X72000000Y-54000000D03*
X72750000Y-54000000D03*
X73250000Y-53500000D03*
X55200000Y-57800000D03*
X51800000Y-56400000D03*
X51550010Y-58500000D03*
X54600000Y-50900000D03*
X54300000Y-52400000D03*
X55500000Y-58300000D03*
X60200000Y-46600000D03*
X54500000Y-45600000D03*
X55300000Y-42100000D03*
X62400000Y-52700000D03*
X62500000Y-47900000D03*
X70200000Y-54900000D03*
X64750000Y-58250000D03*
X64600000Y-42000000D03*
X58750000Y-57250000D03*
X58540690Y-59581380D03*
X61500000Y-52974998D03*
X61500000Y-52250000D03*
X61750000Y-50500000D03*
X59250000Y-50500000D03*
X52262985Y-47497308D03*
X66800000Y-59200000D03*
X68600000Y-59200000D03*
X70750000Y-57800002D03*
X67250000Y-52750000D03*
X68500000Y-52750000D03*
X59250000Y-52750000D03*
X55700010Y-53465000D03*
X46400000Y-45600000D03*
X44500000Y-41200000D03*
X53600000Y-41400000D03*
X54410883Y-43410883D03*
X54200000Y-42300000D03*
X66374999Y-48483187D03*
X63200000Y-42100000D03*
X64024990Y-50700000D03*
X62737384Y-41065618D03*
X63800000Y-50000000D03*
X61473867Y-48212870D03*
X64400000Y-45400000D03*
X61200000Y-41900000D03*
X63200011Y-51600000D03*
X62750000Y-56000000D03*
X67500000Y-59200000D03*
X59100000Y-49200000D03*
X67400000Y-49600000D03*
X50100000Y-44074998D03*
X47800000Y-50600000D03*
X52400000Y-48600000D03*
X54400000Y-49400000D03*
X56975010Y-47600000D03*
X53500000Y-49900000D03*
X57700000Y-47900000D03*
X59200000Y-47500000D03*
X66392710Y-49406075D03*
X63861901Y-58726887D03*
X48800000Y-56600000D03*
X61024995Y-44209819D03*
X48800000Y-58500000D03*
X60800000Y-43600000D03*
X64100000Y-41400000D03*
X71300000Y-43100000D03*
X69500000Y-44200000D03*
X71900000Y-46100000D03*
X54700000Y-41700000D03*
X64300000Y-46700000D03*
X68500000Y-43600000D03*
X54100000Y-45000000D03*
X55900000Y-47700000D03*
X59100000Y-51300000D03*
X58500000Y-47500000D03*
X63300000Y-56500000D03*
X60700000Y-47500000D03*
X63650002Y-57450704D03*
X60800000Y-48200000D03*
X64000000Y-58000000D03*
X49100000Y-42400000D03*
X61606630Y-44499995D03*
X63900000Y-44900000D03*
X61900000Y-41800000D03*
X61900000Y-47100000D03*
X64500000Y-50000000D03*
D16*
G36*
X74623000Y-48697394D02*
X74547394Y-48773000D01*
X69600000Y-48773000D01*
X69550590Y-48783006D01*
X69510197Y-48810197D01*
X68810197Y-49510197D01*
X68782334Y-49552211D01*
X68773000Y-49600000D01*
X68773000Y-50400000D01*
X68783006Y-50449410D01*
X68798400Y-50476200D01*
X69073000Y-50842333D01*
X69073000Y-53100000D01*
X69083006Y-53149410D01*
X69110197Y-53189803D01*
X69210197Y-53289803D01*
X69252211Y-53317666D01*
X69300000Y-53327000D01*
X74623000Y-53327000D01*
X74623000Y-59623000D01*
X68922204Y-59623000D01*
X69046509Y-59498912D01*
X69126909Y-59305287D01*
X69127092Y-59095633D01*
X69047030Y-58901868D01*
X68898912Y-58753491D01*
X68705287Y-58673091D01*
X68495633Y-58672908D01*
X68301868Y-58752970D01*
X68153491Y-58901088D01*
X68073091Y-59094713D01*
X68072908Y-59304367D01*
X68152970Y-59498132D01*
X68277620Y-59623000D01*
X67822204Y-59623000D01*
X67946509Y-59498912D01*
X68026909Y-59305287D01*
X68027092Y-59095633D01*
X67947030Y-58901868D01*
X67798912Y-58753491D01*
X67605287Y-58673091D01*
X67395633Y-58672908D01*
X67201868Y-58752970D01*
X67150040Y-58804708D01*
X67098912Y-58753491D01*
X66905287Y-58673091D01*
X66695633Y-58672908D01*
X66501868Y-58752970D01*
X66353491Y-58901088D01*
X66273091Y-59094713D01*
X66272908Y-59304367D01*
X66352970Y-59498132D01*
X66477620Y-59623000D01*
X59067655Y-59623000D01*
X59067782Y-59477013D01*
X58987720Y-59283248D01*
X58839602Y-59134871D01*
X58645977Y-59054471D01*
X58436323Y-59054288D01*
X58242558Y-59134350D01*
X58094181Y-59282468D01*
X58013781Y-59476093D01*
X58013653Y-59623000D01*
X40377000Y-59623000D01*
X40377000Y-58604367D01*
X48272908Y-58604367D01*
X48352970Y-58798132D01*
X48501088Y-58946509D01*
X48694713Y-59026909D01*
X48904367Y-59027092D01*
X49098132Y-58947030D01*
X49246509Y-58798912D01*
X49326909Y-58605287D01*
X49326909Y-58604367D01*
X51022918Y-58604367D01*
X51102980Y-58798132D01*
X51251098Y-58946509D01*
X51444723Y-59026909D01*
X51654377Y-59027092D01*
X51848142Y-58947030D01*
X51996519Y-58798912D01*
X52076919Y-58605287D01*
X52077102Y-58395633D01*
X51997040Y-58201868D01*
X51848922Y-58053491D01*
X51655297Y-57973091D01*
X51445643Y-57972908D01*
X51251878Y-58052970D01*
X51103501Y-58201088D01*
X51023101Y-58394713D01*
X51022918Y-58604367D01*
X49326909Y-58604367D01*
X49327092Y-58395633D01*
X49247030Y-58201868D01*
X49098912Y-58053491D01*
X48905287Y-57973091D01*
X48695633Y-57972908D01*
X48501868Y-58052970D01*
X48353491Y-58201088D01*
X48273091Y-58394713D01*
X48272908Y-58604367D01*
X40377000Y-58604367D01*
X40377000Y-57904367D01*
X54672908Y-57904367D01*
X54752970Y-58098132D01*
X54901088Y-58246509D01*
X54973020Y-58276378D01*
X54972908Y-58404367D01*
X55052970Y-58598132D01*
X55201088Y-58746509D01*
X55394713Y-58826909D01*
X55604367Y-58827092D01*
X55798132Y-58747030D01*
X55946509Y-58598912D01*
X56026909Y-58405287D01*
X56027092Y-58195633D01*
X55947030Y-58001868D01*
X55798912Y-57853491D01*
X55726980Y-57823622D01*
X55727092Y-57695633D01*
X55647030Y-57501868D01*
X55499787Y-57354367D01*
X58222908Y-57354367D01*
X58302970Y-57548132D01*
X58451088Y-57696509D01*
X58644713Y-57776909D01*
X58854367Y-57777092D01*
X59048132Y-57697030D01*
X59196509Y-57548912D01*
X59276909Y-57355287D01*
X59277092Y-57145633D01*
X59197030Y-56951868D01*
X59048912Y-56803491D01*
X58855287Y-56723091D01*
X58645633Y-56722908D01*
X58451868Y-56802970D01*
X58303491Y-56951088D01*
X58223091Y-57144713D01*
X58222908Y-57354367D01*
X55499787Y-57354367D01*
X55498912Y-57353491D01*
X55305287Y-57273091D01*
X55095633Y-57272908D01*
X54901868Y-57352970D01*
X54753491Y-57501088D01*
X54673091Y-57694713D01*
X54672908Y-57904367D01*
X40377000Y-57904367D01*
X40377000Y-56704367D01*
X48272908Y-56704367D01*
X48352970Y-56898132D01*
X48501088Y-57046509D01*
X48694713Y-57126909D01*
X48904367Y-57127092D01*
X49098132Y-57047030D01*
X49246509Y-56898912D01*
X49326909Y-56705287D01*
X49327084Y-56504367D01*
X51272908Y-56504367D01*
X51352970Y-56698132D01*
X51501088Y-56846509D01*
X51694713Y-56926909D01*
X51904367Y-56927092D01*
X52098132Y-56847030D01*
X52246509Y-56698912D01*
X52326909Y-56505287D01*
X52327092Y-56295633D01*
X52248063Y-56104367D01*
X62222908Y-56104367D01*
X62302970Y-56298132D01*
X62451088Y-56446509D01*
X62644713Y-56526909D01*
X62772976Y-56527021D01*
X62772908Y-56604367D01*
X62852970Y-56798132D01*
X63001088Y-56946509D01*
X63194713Y-57026909D01*
X63328477Y-57027026D01*
X63203493Y-57151792D01*
X63123093Y-57345417D01*
X63122910Y-57555071D01*
X63202972Y-57748836D01*
X63351090Y-57897213D01*
X63473045Y-57947853D01*
X63472908Y-58104367D01*
X63550778Y-58292826D01*
X63415392Y-58427975D01*
X63334992Y-58621600D01*
X63334809Y-58831254D01*
X63414871Y-59025019D01*
X63562989Y-59173396D01*
X63756614Y-59253796D01*
X63966268Y-59253979D01*
X64160033Y-59173917D01*
X64308410Y-59025799D01*
X64388810Y-58832174D01*
X64388983Y-58634295D01*
X64451088Y-58696509D01*
X64644713Y-58776909D01*
X64854367Y-58777092D01*
X65048132Y-58697030D01*
X65196509Y-58548912D01*
X65276909Y-58355287D01*
X65277092Y-58145633D01*
X65197030Y-57951868D01*
X65149614Y-57904369D01*
X70222908Y-57904369D01*
X70302970Y-58098134D01*
X70451088Y-58246511D01*
X70644713Y-58326911D01*
X70854367Y-58327094D01*
X71048132Y-58247032D01*
X71196509Y-58098914D01*
X71276909Y-57905289D01*
X71277092Y-57695635D01*
X71197030Y-57501870D01*
X71048912Y-57353493D01*
X70855287Y-57273093D01*
X70645633Y-57272910D01*
X70451868Y-57352972D01*
X70303491Y-57501090D01*
X70223091Y-57694715D01*
X70222908Y-57904369D01*
X65149614Y-57904369D01*
X65048912Y-57803491D01*
X64855287Y-57723091D01*
X64645633Y-57722908D01*
X64483418Y-57789934D01*
X64447030Y-57701868D01*
X64298912Y-57553491D01*
X64176957Y-57502851D01*
X64177094Y-57346337D01*
X64097032Y-57152572D01*
X63948914Y-57004195D01*
X63755289Y-56923795D01*
X63621525Y-56923678D01*
X63746509Y-56798912D01*
X63826909Y-56605287D01*
X63827092Y-56395633D01*
X63747030Y-56201868D01*
X63598912Y-56053491D01*
X63405287Y-55973091D01*
X63277024Y-55972979D01*
X63277092Y-55895633D01*
X63197030Y-55701868D01*
X63048912Y-55553491D01*
X62855287Y-55473091D01*
X62645633Y-55472908D01*
X62451868Y-55552970D01*
X62303491Y-55701088D01*
X62223091Y-55894713D01*
X62222908Y-56104367D01*
X52248063Y-56104367D01*
X52247030Y-56101868D01*
X52098912Y-55953491D01*
X51905287Y-55873091D01*
X51695633Y-55872908D01*
X51501868Y-55952970D01*
X51353491Y-56101088D01*
X51273091Y-56294713D01*
X51272908Y-56504367D01*
X49327084Y-56504367D01*
X49327092Y-56495633D01*
X49247030Y-56301868D01*
X49098912Y-56153491D01*
X48905287Y-56073091D01*
X48695633Y-56072908D01*
X48501868Y-56152970D01*
X48353491Y-56301088D01*
X48273091Y-56494713D01*
X48272908Y-56704367D01*
X40377000Y-56704367D01*
X40377000Y-55004367D01*
X69672908Y-55004367D01*
X69752970Y-55198132D01*
X69901088Y-55346509D01*
X70094713Y-55426909D01*
X70304367Y-55427092D01*
X70498132Y-55347030D01*
X70646509Y-55198912D01*
X70726909Y-55005287D01*
X70727092Y-54795633D01*
X70647030Y-54601868D01*
X70498912Y-54453491D01*
X70305287Y-54373091D01*
X70095633Y-54372908D01*
X69901868Y-54452970D01*
X69753491Y-54601088D01*
X69673091Y-54794713D01*
X69672908Y-55004367D01*
X40377000Y-55004367D01*
X40377000Y-53569367D01*
X55172918Y-53569367D01*
X55252980Y-53763132D01*
X55401098Y-53911509D01*
X55594723Y-53991909D01*
X55804377Y-53992092D01*
X55998142Y-53912030D01*
X56146519Y-53763912D01*
X56226919Y-53570287D01*
X56227102Y-53360633D01*
X56147040Y-53166868D01*
X55998922Y-53018491D01*
X55805297Y-52938091D01*
X55595643Y-52937908D01*
X55401878Y-53017970D01*
X55253501Y-53166088D01*
X55173101Y-53359713D01*
X55172918Y-53569367D01*
X40377000Y-53569367D01*
X40377000Y-52504367D01*
X53772908Y-52504367D01*
X53852970Y-52698132D01*
X54001088Y-52846509D01*
X54194713Y-52926909D01*
X54404367Y-52927092D01*
X54580375Y-52854367D01*
X58722908Y-52854367D01*
X58802970Y-53048132D01*
X58951088Y-53196509D01*
X59144713Y-53276909D01*
X59354367Y-53277092D01*
X59548132Y-53197030D01*
X59696509Y-53048912D01*
X59776909Y-52855287D01*
X59777092Y-52645633D01*
X59697030Y-52451868D01*
X59599700Y-52354367D01*
X60972908Y-52354367D01*
X61052970Y-52548132D01*
X61117207Y-52612481D01*
X61053491Y-52676086D01*
X60973091Y-52869711D01*
X60972908Y-53079365D01*
X61052970Y-53273130D01*
X61201088Y-53421507D01*
X61394713Y-53501907D01*
X61604367Y-53502090D01*
X61798132Y-53422028D01*
X61946509Y-53273910D01*
X62026909Y-53080285D01*
X62026916Y-53072207D01*
X62101088Y-53146509D01*
X62294713Y-53226909D01*
X62504367Y-53227092D01*
X62698132Y-53147030D01*
X62846509Y-52998912D01*
X62906529Y-52854367D01*
X66722908Y-52854367D01*
X66802970Y-53048132D01*
X66951088Y-53196509D01*
X67144713Y-53276909D01*
X67354367Y-53277092D01*
X67548132Y-53197030D01*
X67696509Y-53048912D01*
X67776909Y-52855287D01*
X67776909Y-52854367D01*
X67972908Y-52854367D01*
X68052970Y-53048132D01*
X68201088Y-53196509D01*
X68394713Y-53276909D01*
X68604367Y-53277092D01*
X68798132Y-53197030D01*
X68946509Y-53048912D01*
X69026909Y-52855287D01*
X69027092Y-52645633D01*
X68947030Y-52451868D01*
X68798912Y-52303491D01*
X68605287Y-52223091D01*
X68395633Y-52222908D01*
X68201868Y-52302970D01*
X68053491Y-52451088D01*
X67973091Y-52644713D01*
X67972908Y-52854367D01*
X67776909Y-52854367D01*
X67777092Y-52645633D01*
X67697030Y-52451868D01*
X67548912Y-52303491D01*
X67355287Y-52223091D01*
X67145633Y-52222908D01*
X66951868Y-52302970D01*
X66803491Y-52451088D01*
X66723091Y-52644713D01*
X66722908Y-52854367D01*
X62906529Y-52854367D01*
X62926909Y-52805287D01*
X62927092Y-52595633D01*
X62847030Y-52401868D01*
X62698912Y-52253491D01*
X62505287Y-52173091D01*
X62295633Y-52172908D01*
X62101868Y-52252970D01*
X62026933Y-52327774D01*
X62027092Y-52145633D01*
X61947030Y-51951868D01*
X61798912Y-51803491D01*
X61605287Y-51723091D01*
X61395633Y-51722908D01*
X61201868Y-51802970D01*
X61053491Y-51951088D01*
X60973091Y-52144713D01*
X60972908Y-52354367D01*
X59599700Y-52354367D01*
X59548912Y-52303491D01*
X59355287Y-52223091D01*
X59145633Y-52222908D01*
X58951868Y-52302970D01*
X58803491Y-52451088D01*
X58723091Y-52644713D01*
X58722908Y-52854367D01*
X54580375Y-52854367D01*
X54598132Y-52847030D01*
X54746509Y-52698912D01*
X54826909Y-52505287D01*
X54827092Y-52295633D01*
X54747030Y-52101868D01*
X54598912Y-51953491D01*
X54405287Y-51873091D01*
X54195633Y-51872908D01*
X54001868Y-51952970D01*
X53853491Y-52101088D01*
X53773091Y-52294713D01*
X53772908Y-52504367D01*
X40377000Y-52504367D01*
X40377000Y-50704367D01*
X47272908Y-50704367D01*
X47352970Y-50898132D01*
X47501088Y-51046509D01*
X47694713Y-51126909D01*
X47904367Y-51127092D01*
X48098132Y-51047030D01*
X48140869Y-51004367D01*
X54072908Y-51004367D01*
X54152970Y-51198132D01*
X54301088Y-51346509D01*
X54494713Y-51426909D01*
X54704367Y-51427092D01*
X54759365Y-51404367D01*
X58572908Y-51404367D01*
X58652970Y-51598132D01*
X58801088Y-51746509D01*
X58994713Y-51826909D01*
X59204367Y-51827092D01*
X59398132Y-51747030D01*
X59440869Y-51704367D01*
X62672919Y-51704367D01*
X62752981Y-51898132D01*
X62901099Y-52046509D01*
X63094724Y-52126909D01*
X63304378Y-52127092D01*
X63498143Y-52047030D01*
X63646520Y-51898912D01*
X63726920Y-51705287D01*
X63727103Y-51495633D01*
X63647041Y-51301868D01*
X63498923Y-51153491D01*
X63305298Y-51073091D01*
X63095644Y-51072908D01*
X62901879Y-51152970D01*
X62753502Y-51301088D01*
X62673102Y-51494713D01*
X62672919Y-51704367D01*
X59440869Y-51704367D01*
X59546509Y-51598912D01*
X59626909Y-51405287D01*
X59627092Y-51195633D01*
X59547030Y-51001868D01*
X59508595Y-50963366D01*
X59548132Y-50947030D01*
X59696509Y-50798912D01*
X59776909Y-50605287D01*
X59776909Y-50604367D01*
X61222908Y-50604367D01*
X61302970Y-50798132D01*
X61451088Y-50946509D01*
X61644713Y-51026909D01*
X61854367Y-51027092D01*
X62048132Y-50947030D01*
X62196509Y-50798912D01*
X62276909Y-50605287D01*
X62277092Y-50395633D01*
X62197030Y-50201868D01*
X62099700Y-50104367D01*
X63272908Y-50104367D01*
X63352970Y-50298132D01*
X63501088Y-50446509D01*
X63551013Y-50467239D01*
X63498081Y-50594713D01*
X63497898Y-50804367D01*
X63577960Y-50998132D01*
X63726078Y-51146509D01*
X63919703Y-51226909D01*
X64129357Y-51227092D01*
X64323122Y-51147030D01*
X64471499Y-50998912D01*
X64551899Y-50805287D01*
X64552082Y-50595633D01*
X64523732Y-50527022D01*
X64604367Y-50527092D01*
X64798132Y-50447030D01*
X64946509Y-50298912D01*
X65026909Y-50105287D01*
X65027092Y-49895633D01*
X64947030Y-49701868D01*
X64798912Y-49553491D01*
X64605287Y-49473091D01*
X64395633Y-49472908D01*
X64201868Y-49552970D01*
X64150040Y-49604708D01*
X64098912Y-49553491D01*
X63905287Y-49473091D01*
X63695633Y-49472908D01*
X63501868Y-49552970D01*
X63353491Y-49701088D01*
X63273091Y-49894713D01*
X63272908Y-50104367D01*
X62099700Y-50104367D01*
X62048912Y-50053491D01*
X61855287Y-49973091D01*
X61645633Y-49972908D01*
X61451868Y-50052970D01*
X61303491Y-50201088D01*
X61223091Y-50394713D01*
X61222908Y-50604367D01*
X59776909Y-50604367D01*
X59777092Y-50395633D01*
X59697030Y-50201868D01*
X59548912Y-50053491D01*
X59355287Y-49973091D01*
X59145633Y-49972908D01*
X58951868Y-50052970D01*
X58803491Y-50201088D01*
X58723091Y-50394713D01*
X58722908Y-50604367D01*
X58802970Y-50798132D01*
X58841405Y-50836634D01*
X58801868Y-50852970D01*
X58653491Y-51001088D01*
X58573091Y-51194713D01*
X58572908Y-51404367D01*
X54759365Y-51404367D01*
X54898132Y-51347030D01*
X55046509Y-51198912D01*
X55126909Y-51005287D01*
X55127092Y-50795633D01*
X55047030Y-50601868D01*
X54898912Y-50453491D01*
X54705287Y-50373091D01*
X54495633Y-50372908D01*
X54301868Y-50452970D01*
X54153491Y-50601088D01*
X54073091Y-50794713D01*
X54072908Y-51004367D01*
X48140869Y-51004367D01*
X48246509Y-50898912D01*
X48326909Y-50705287D01*
X48327092Y-50495633D01*
X48247030Y-50301868D01*
X48098912Y-50153491D01*
X47905287Y-50073091D01*
X47695633Y-50072908D01*
X47501868Y-50152970D01*
X47353491Y-50301088D01*
X47273091Y-50494713D01*
X47272908Y-50704367D01*
X40377000Y-50704367D01*
X40377000Y-50004367D01*
X52972908Y-50004367D01*
X53052970Y-50198132D01*
X53201088Y-50346509D01*
X53394713Y-50426909D01*
X53604367Y-50427092D01*
X53798132Y-50347030D01*
X53946509Y-50198912D01*
X54026909Y-50005287D01*
X54027092Y-49795633D01*
X54010701Y-49755964D01*
X54101088Y-49846509D01*
X54294713Y-49926909D01*
X54504367Y-49927092D01*
X54698132Y-49847030D01*
X54846509Y-49698912D01*
X54926909Y-49505287D01*
X54927084Y-49304367D01*
X58572908Y-49304367D01*
X58652970Y-49498132D01*
X58801088Y-49646509D01*
X58994713Y-49726909D01*
X59204367Y-49727092D01*
X59398132Y-49647030D01*
X59546509Y-49498912D01*
X59626909Y-49305287D01*
X59627092Y-49095633D01*
X59547030Y-48901868D01*
X59398912Y-48753491D01*
X59205287Y-48673091D01*
X58995633Y-48672908D01*
X58801868Y-48752970D01*
X58653491Y-48901088D01*
X58573091Y-49094713D01*
X58572908Y-49304367D01*
X54927084Y-49304367D01*
X54927092Y-49295633D01*
X54847030Y-49101868D01*
X54698912Y-48953491D01*
X54505287Y-48873091D01*
X54295633Y-48872908D01*
X54101868Y-48952970D01*
X53953491Y-49101088D01*
X53873091Y-49294713D01*
X53872908Y-49504367D01*
X53889299Y-49544036D01*
X53798912Y-49453491D01*
X53605287Y-49373091D01*
X53395633Y-49372908D01*
X53201868Y-49452970D01*
X53053491Y-49601088D01*
X52973091Y-49794713D01*
X52972908Y-50004367D01*
X40377000Y-50004367D01*
X40377000Y-48704367D01*
X51872908Y-48704367D01*
X51952970Y-48898132D01*
X52101088Y-49046509D01*
X52294713Y-49126909D01*
X52504367Y-49127092D01*
X52698132Y-49047030D01*
X52846509Y-48898912D01*
X52926909Y-48705287D01*
X52927092Y-48495633D01*
X52847030Y-48301868D01*
X52698912Y-48153491D01*
X52505287Y-48073091D01*
X52295633Y-48072908D01*
X52101868Y-48152970D01*
X51953491Y-48301088D01*
X51873091Y-48494713D01*
X51872908Y-48704367D01*
X40377000Y-48704367D01*
X40377000Y-47601675D01*
X51735893Y-47601675D01*
X51815955Y-47795440D01*
X51964073Y-47943817D01*
X52157698Y-48024217D01*
X52367352Y-48024400D01*
X52561117Y-47944338D01*
X52701332Y-47804367D01*
X55372908Y-47804367D01*
X55452970Y-47998132D01*
X55601088Y-48146509D01*
X55794713Y-48226909D01*
X56004367Y-48227092D01*
X56198132Y-48147030D01*
X56346509Y-47998912D01*
X56426909Y-47805287D01*
X56426997Y-47704367D01*
X56447918Y-47704367D01*
X56527980Y-47898132D01*
X56676098Y-48046509D01*
X56869723Y-48126909D01*
X57079377Y-48127092D01*
X57202582Y-48076185D01*
X57252970Y-48198132D01*
X57401088Y-48346509D01*
X57594713Y-48426909D01*
X57804367Y-48427092D01*
X57998132Y-48347030D01*
X58146509Y-48198912D01*
X58226909Y-48005287D01*
X58226951Y-47957248D01*
X58394713Y-48026909D01*
X58604367Y-48027092D01*
X58798132Y-47947030D01*
X58849960Y-47895292D01*
X58901088Y-47946509D01*
X59094713Y-48026909D01*
X59304367Y-48027092D01*
X59498132Y-47947030D01*
X59646509Y-47798912D01*
X59726909Y-47605287D01*
X59727092Y-47395633D01*
X59647030Y-47201868D01*
X59498912Y-47053491D01*
X59305287Y-46973091D01*
X59095633Y-46972908D01*
X58901868Y-47052970D01*
X58850040Y-47104708D01*
X58798912Y-47053491D01*
X58605287Y-46973091D01*
X58395633Y-46972908D01*
X58201868Y-47052970D01*
X58053491Y-47201088D01*
X57973091Y-47394713D01*
X57973049Y-47442752D01*
X57805287Y-47373091D01*
X57595633Y-47372908D01*
X57472428Y-47423815D01*
X57422040Y-47301868D01*
X57273922Y-47153491D01*
X57080297Y-47073091D01*
X56870643Y-47072908D01*
X56676878Y-47152970D01*
X56528501Y-47301088D01*
X56448101Y-47494713D01*
X56447918Y-47704367D01*
X56426997Y-47704367D01*
X56427092Y-47595633D01*
X56347030Y-47401868D01*
X56198912Y-47253491D01*
X56005287Y-47173091D01*
X55795633Y-47172908D01*
X55601868Y-47252970D01*
X55453491Y-47401088D01*
X55373091Y-47594713D01*
X55372908Y-47804367D01*
X52701332Y-47804367D01*
X52709494Y-47796220D01*
X52789894Y-47602595D01*
X52790077Y-47392941D01*
X52710015Y-47199176D01*
X52561897Y-47050799D01*
X52368272Y-46970399D01*
X52158618Y-46970216D01*
X51964853Y-47050278D01*
X51816476Y-47198396D01*
X51736076Y-47392021D01*
X51735893Y-47601675D01*
X40377000Y-47601675D01*
X40377000Y-46704367D01*
X59672908Y-46704367D01*
X59752970Y-46898132D01*
X59901088Y-47046509D01*
X60094713Y-47126909D01*
X60304367Y-47127092D01*
X60344036Y-47110701D01*
X60253491Y-47201088D01*
X60173091Y-47394713D01*
X60172908Y-47604367D01*
X60252970Y-47798132D01*
X60354621Y-47899960D01*
X60353491Y-47901088D01*
X60273091Y-48094713D01*
X60272908Y-48304367D01*
X60352970Y-48498132D01*
X60501088Y-48646509D01*
X60694713Y-48726909D01*
X60904367Y-48727092D01*
X61098132Y-48647030D01*
X61130436Y-48614782D01*
X61174955Y-48659379D01*
X61368580Y-48739779D01*
X61578234Y-48739962D01*
X61771999Y-48659900D01*
X61844471Y-48587554D01*
X65847907Y-48587554D01*
X65927969Y-48781319D01*
X66076087Y-48929696D01*
X66120737Y-48948236D01*
X66094578Y-48959045D01*
X65946201Y-49107163D01*
X65865801Y-49300788D01*
X65865618Y-49510442D01*
X65945680Y-49704207D01*
X66093798Y-49852584D01*
X66287423Y-49932984D01*
X66497077Y-49933167D01*
X66690842Y-49853105D01*
X66839219Y-49704987D01*
X66872978Y-49623685D01*
X66872908Y-49704367D01*
X66952970Y-49898132D01*
X67101088Y-50046509D01*
X67294713Y-50126909D01*
X67504367Y-50127092D01*
X67698132Y-50047030D01*
X67846509Y-49898912D01*
X67926909Y-49705287D01*
X67927092Y-49495633D01*
X67847030Y-49301868D01*
X67698912Y-49153491D01*
X67505287Y-49073091D01*
X67295633Y-49072908D01*
X67101868Y-49152970D01*
X66953491Y-49301088D01*
X66919732Y-49382390D01*
X66919802Y-49301708D01*
X66839740Y-49107943D01*
X66691622Y-48959566D01*
X66646972Y-48941026D01*
X66673131Y-48930217D01*
X66821508Y-48782099D01*
X66901908Y-48588474D01*
X66902091Y-48378820D01*
X66822029Y-48185055D01*
X66673911Y-48036678D01*
X66480286Y-47956278D01*
X66270632Y-47956095D01*
X66076867Y-48036157D01*
X65928490Y-48184275D01*
X65848090Y-48377900D01*
X65847907Y-48587554D01*
X61844471Y-48587554D01*
X61920376Y-48511782D01*
X62000776Y-48318157D01*
X62000959Y-48108503D01*
X61920897Y-47914738D01*
X61772779Y-47766361D01*
X61579154Y-47685961D01*
X61369500Y-47685778D01*
X61175735Y-47765840D01*
X61149273Y-47792256D01*
X61226909Y-47605287D01*
X61227092Y-47395633D01*
X61148063Y-47204367D01*
X61372908Y-47204367D01*
X61452970Y-47398132D01*
X61601088Y-47546509D01*
X61794713Y-47626909D01*
X62004367Y-47627092D01*
X62050631Y-47607976D01*
X61973091Y-47794713D01*
X61972908Y-48004367D01*
X62052970Y-48198132D01*
X62201088Y-48346509D01*
X62394713Y-48426909D01*
X62604367Y-48427092D01*
X62798132Y-48347030D01*
X62946509Y-48198912D01*
X63026909Y-48005287D01*
X63027092Y-47795633D01*
X62947030Y-47601868D01*
X62798912Y-47453491D01*
X62605287Y-47373091D01*
X62395633Y-47372908D01*
X62349369Y-47392024D01*
X62426909Y-47205287D01*
X62427092Y-46995633D01*
X62348063Y-46804367D01*
X63772908Y-46804367D01*
X63852970Y-46998132D01*
X64001088Y-47146509D01*
X64194713Y-47226909D01*
X64404367Y-47227092D01*
X64598132Y-47147030D01*
X64746509Y-46998912D01*
X64826909Y-46805287D01*
X64827092Y-46595633D01*
X64747030Y-46401868D01*
X64598912Y-46253491D01*
X64480609Y-46204367D01*
X71372908Y-46204367D01*
X71452970Y-46398132D01*
X71601088Y-46546509D01*
X71794713Y-46626909D01*
X72004367Y-46627092D01*
X72198132Y-46547030D01*
X72346509Y-46398912D01*
X72426909Y-46205287D01*
X72427092Y-45995633D01*
X72347030Y-45801868D01*
X72198912Y-45653491D01*
X72005287Y-45573091D01*
X71795633Y-45572908D01*
X71601868Y-45652970D01*
X71453491Y-45801088D01*
X71373091Y-45994713D01*
X71372908Y-46204367D01*
X64480609Y-46204367D01*
X64405287Y-46173091D01*
X64195633Y-46172908D01*
X64001868Y-46252970D01*
X63853491Y-46401088D01*
X63773091Y-46594713D01*
X63772908Y-46804367D01*
X62348063Y-46804367D01*
X62347030Y-46801868D01*
X62198912Y-46653491D01*
X62005287Y-46573091D01*
X61795633Y-46572908D01*
X61601868Y-46652970D01*
X61453491Y-46801088D01*
X61373091Y-46994713D01*
X61372908Y-47204367D01*
X61148063Y-47204367D01*
X61147030Y-47201868D01*
X60998912Y-47053491D01*
X60805287Y-46973091D01*
X60595633Y-46972908D01*
X60555964Y-46989299D01*
X60646509Y-46898912D01*
X60726909Y-46705287D01*
X60727092Y-46495633D01*
X60647030Y-46301868D01*
X60498912Y-46153491D01*
X60305287Y-46073091D01*
X60095633Y-46072908D01*
X59901868Y-46152970D01*
X59753491Y-46301088D01*
X59673091Y-46494713D01*
X59672908Y-46704367D01*
X40377000Y-46704367D01*
X40377000Y-45704367D01*
X45872908Y-45704367D01*
X45952970Y-45898132D01*
X46101088Y-46046509D01*
X46294713Y-46126909D01*
X46504367Y-46127092D01*
X46698132Y-46047030D01*
X46846509Y-45898912D01*
X46926909Y-45705287D01*
X46927092Y-45495633D01*
X46847030Y-45301868D01*
X46698912Y-45153491D01*
X46580609Y-45104367D01*
X53572908Y-45104367D01*
X53652970Y-45298132D01*
X53801088Y-45446509D01*
X53973071Y-45517922D01*
X53972908Y-45704367D01*
X54052970Y-45898132D01*
X54201088Y-46046509D01*
X54394713Y-46126909D01*
X54604367Y-46127092D01*
X54798132Y-46047030D01*
X54946509Y-45898912D01*
X55026909Y-45705287D01*
X55027092Y-45495633D01*
X54947030Y-45301868D01*
X54798912Y-45153491D01*
X54626929Y-45082078D01*
X54627092Y-44895633D01*
X54547030Y-44701868D01*
X54398912Y-44553491D01*
X54205287Y-44473091D01*
X53995633Y-44472908D01*
X53801868Y-44552970D01*
X53653491Y-44701088D01*
X53573091Y-44894713D01*
X53572908Y-45104367D01*
X46580609Y-45104367D01*
X46505287Y-45073091D01*
X46295633Y-45072908D01*
X46101868Y-45152970D01*
X45953491Y-45301088D01*
X45873091Y-45494713D01*
X45872908Y-45704367D01*
X40377000Y-45704367D01*
X40377000Y-44179365D01*
X49572908Y-44179365D01*
X49652970Y-44373130D01*
X49801088Y-44521507D01*
X49994713Y-44601907D01*
X50204367Y-44602090D01*
X50398132Y-44522028D01*
X50546509Y-44373910D01*
X50626909Y-44180285D01*
X50627092Y-43970631D01*
X50547030Y-43776866D01*
X50398912Y-43628489D01*
X50205287Y-43548089D01*
X49995633Y-43547906D01*
X49801868Y-43627968D01*
X49653491Y-43776086D01*
X49573091Y-43969711D01*
X49572908Y-44179365D01*
X40377000Y-44179365D01*
X40377000Y-43515250D01*
X53883791Y-43515250D01*
X53963853Y-43709015D01*
X54111971Y-43857392D01*
X54305596Y-43937792D01*
X54515250Y-43937975D01*
X54709015Y-43857913D01*
X54857392Y-43709795D01*
X54859645Y-43704367D01*
X60272908Y-43704367D01*
X60352970Y-43898132D01*
X60501088Y-44046509D01*
X60519077Y-44053979D01*
X60498086Y-44104532D01*
X60497903Y-44314186D01*
X60577965Y-44507951D01*
X60726083Y-44656328D01*
X60919708Y-44736728D01*
X61129362Y-44736911D01*
X61133585Y-44735166D01*
X61159600Y-44798127D01*
X61307718Y-44946504D01*
X61501343Y-45026904D01*
X61710997Y-45027087D01*
X61904762Y-44947025D01*
X62024711Y-44827285D01*
X62067492Y-44870140D01*
X62444821Y-45026821D01*
X62853387Y-45027178D01*
X63230989Y-44871156D01*
X63419482Y-44682991D01*
X63373091Y-44794713D01*
X63372908Y-45004367D01*
X63452970Y-45198132D01*
X63601088Y-45346509D01*
X63794713Y-45426909D01*
X63872976Y-45426977D01*
X63872908Y-45504367D01*
X63952970Y-45698132D01*
X64101088Y-45846509D01*
X64294713Y-45926909D01*
X64504367Y-45927092D01*
X64698132Y-45847030D01*
X64846509Y-45698912D01*
X64926909Y-45505287D01*
X64927092Y-45295633D01*
X64847030Y-45101868D01*
X64698912Y-44953491D01*
X64505287Y-44873091D01*
X64427024Y-44873023D01*
X64427092Y-44795633D01*
X64347030Y-44601868D01*
X64198912Y-44453491D01*
X64005287Y-44373091D01*
X63795633Y-44372908D01*
X63601868Y-44452970D01*
X63554149Y-44500606D01*
X63635634Y-44304367D01*
X68972908Y-44304367D01*
X69052970Y-44498132D01*
X69201088Y-44646509D01*
X69394713Y-44726909D01*
X69604367Y-44727092D01*
X69798132Y-44647030D01*
X69946509Y-44498912D01*
X70026909Y-44305287D01*
X70026997Y-44203387D01*
X71822822Y-44203387D01*
X71978844Y-44580989D01*
X72267492Y-44870140D01*
X72644821Y-45026821D01*
X73053387Y-45027178D01*
X73430989Y-44871156D01*
X73720140Y-44582508D01*
X73876821Y-44205179D01*
X73877178Y-43796613D01*
X73721156Y-43419011D01*
X73432508Y-43129860D01*
X73055179Y-42973179D01*
X72646613Y-42972822D01*
X72269011Y-43128844D01*
X71979860Y-43417492D01*
X71823179Y-43794821D01*
X71822822Y-44203387D01*
X70026997Y-44203387D01*
X70027092Y-44095633D01*
X69947030Y-43901868D01*
X69798912Y-43753491D01*
X69605287Y-43673091D01*
X69395633Y-43672908D01*
X69201868Y-43752970D01*
X69053491Y-43901088D01*
X68973091Y-44094713D01*
X68972908Y-44304367D01*
X63635634Y-44304367D01*
X63676821Y-44205179D01*
X63677178Y-43796613D01*
X63639063Y-43704367D01*
X67972908Y-43704367D01*
X68052970Y-43898132D01*
X68201088Y-44046509D01*
X68394713Y-44126909D01*
X68604367Y-44127092D01*
X68798132Y-44047030D01*
X68946509Y-43898912D01*
X69026909Y-43705287D01*
X69027092Y-43495633D01*
X68947030Y-43301868D01*
X68849700Y-43204367D01*
X70772908Y-43204367D01*
X70852970Y-43398132D01*
X71001088Y-43546509D01*
X71194713Y-43626909D01*
X71404367Y-43627092D01*
X71598132Y-43547030D01*
X71746509Y-43398912D01*
X71826909Y-43205287D01*
X71827092Y-42995633D01*
X71747030Y-42801868D01*
X71598912Y-42653491D01*
X71405287Y-42573091D01*
X71195633Y-42572908D01*
X71001868Y-42652970D01*
X70853491Y-42801088D01*
X70773091Y-42994713D01*
X70772908Y-43204367D01*
X68849700Y-43204367D01*
X68798912Y-43153491D01*
X68605287Y-43073091D01*
X68395633Y-43072908D01*
X68201868Y-43152970D01*
X68053491Y-43301088D01*
X67973091Y-43494713D01*
X67972908Y-43704367D01*
X63639063Y-43704367D01*
X63521156Y-43419011D01*
X63232508Y-43129860D01*
X62855179Y-42973179D01*
X62446613Y-42972822D01*
X62069011Y-43128844D01*
X61779860Y-43417492D01*
X61623179Y-43794821D01*
X61623023Y-43973008D01*
X61502263Y-43972903D01*
X61498040Y-43974648D01*
X61472025Y-43911687D01*
X61323907Y-43763310D01*
X61305918Y-43755840D01*
X61326909Y-43705287D01*
X61327092Y-43495633D01*
X61247030Y-43301868D01*
X61098912Y-43153491D01*
X60905287Y-43073091D01*
X60695633Y-43072908D01*
X60501868Y-43152970D01*
X60353491Y-43301088D01*
X60273091Y-43494713D01*
X60272908Y-43704367D01*
X54859645Y-43704367D01*
X54937792Y-43516170D01*
X54937975Y-43306516D01*
X54857913Y-43112751D01*
X54709795Y-42964374D01*
X54516170Y-42883974D01*
X54306516Y-42883791D01*
X54112751Y-42963853D01*
X53964374Y-43111971D01*
X53883974Y-43305596D01*
X53883791Y-43515250D01*
X40377000Y-43515250D01*
X40377000Y-42504367D01*
X48572908Y-42504367D01*
X48652970Y-42698132D01*
X48801088Y-42846509D01*
X48994713Y-42926909D01*
X49204367Y-42927092D01*
X49398132Y-42847030D01*
X49546509Y-42698912D01*
X49626909Y-42505287D01*
X49626997Y-42404367D01*
X53672908Y-42404367D01*
X53752970Y-42598132D01*
X53901088Y-42746509D01*
X54094713Y-42826909D01*
X54304367Y-42827092D01*
X54498132Y-42747030D01*
X54646509Y-42598912D01*
X54726909Y-42405287D01*
X54727065Y-42227025D01*
X54782290Y-42227073D01*
X54852970Y-42398132D01*
X55001088Y-42546509D01*
X55194713Y-42626909D01*
X55404367Y-42627092D01*
X55598132Y-42547030D01*
X55746509Y-42398912D01*
X55826909Y-42205287D01*
X55827084Y-42004367D01*
X60672908Y-42004367D01*
X60752970Y-42198132D01*
X60901088Y-42346509D01*
X61094713Y-42426909D01*
X61304367Y-42427092D01*
X61498132Y-42347030D01*
X61599960Y-42245379D01*
X61601088Y-42246509D01*
X61794713Y-42326909D01*
X62004367Y-42327092D01*
X62198132Y-42247030D01*
X62240869Y-42204367D01*
X62672908Y-42204367D01*
X62752970Y-42398132D01*
X62901088Y-42546509D01*
X63094713Y-42626909D01*
X63304367Y-42627092D01*
X63498132Y-42547030D01*
X63646509Y-42398912D01*
X63726909Y-42205287D01*
X63727092Y-41995633D01*
X63647030Y-41801868D01*
X63498912Y-41653491D01*
X63305287Y-41573091D01*
X63095633Y-41572908D01*
X62901868Y-41652970D01*
X62753491Y-41801088D01*
X62673091Y-41994713D01*
X62672908Y-42204367D01*
X62240869Y-42204367D01*
X62346509Y-42098912D01*
X62426909Y-41905287D01*
X62427092Y-41695633D01*
X62347030Y-41501868D01*
X62198912Y-41353491D01*
X62005287Y-41273091D01*
X61795633Y-41272908D01*
X61601868Y-41352970D01*
X61500040Y-41454621D01*
X61498912Y-41453491D01*
X61305287Y-41373091D01*
X61095633Y-41372908D01*
X60901868Y-41452970D01*
X60753491Y-41601088D01*
X60673091Y-41794713D01*
X60672908Y-42004367D01*
X55827084Y-42004367D01*
X55827092Y-41995633D01*
X55747030Y-41801868D01*
X55598912Y-41653491D01*
X55405287Y-41573091D01*
X55217710Y-41572927D01*
X55147030Y-41401868D01*
X54998912Y-41253491D01*
X54805287Y-41173091D01*
X54595633Y-41172908D01*
X54401868Y-41252970D01*
X54253491Y-41401088D01*
X54173091Y-41594713D01*
X54172935Y-41772975D01*
X54095633Y-41772908D01*
X53901868Y-41852970D01*
X53753491Y-42001088D01*
X53673091Y-42194713D01*
X53672908Y-42404367D01*
X49626997Y-42404367D01*
X49627092Y-42295633D01*
X49547030Y-42101868D01*
X49398912Y-41953491D01*
X49205287Y-41873091D01*
X48995633Y-41872908D01*
X48801868Y-41952970D01*
X48653491Y-42101088D01*
X48573091Y-42294713D01*
X48572908Y-42504367D01*
X40377000Y-42504367D01*
X40377000Y-41304367D01*
X43972908Y-41304367D01*
X44052970Y-41498132D01*
X44201088Y-41646509D01*
X44394713Y-41726909D01*
X44604367Y-41727092D01*
X44798132Y-41647030D01*
X44941044Y-41504367D01*
X53072908Y-41504367D01*
X53152970Y-41698132D01*
X53301088Y-41846509D01*
X53494713Y-41926909D01*
X53704367Y-41927092D01*
X53898132Y-41847030D01*
X54046509Y-41698912D01*
X54126909Y-41505287D01*
X54127092Y-41295633D01*
X54075176Y-41169985D01*
X62210292Y-41169985D01*
X62290354Y-41363750D01*
X62438472Y-41512127D01*
X62632097Y-41592527D01*
X62841751Y-41592710D01*
X63035516Y-41512648D01*
X63043811Y-41504367D01*
X63572908Y-41504367D01*
X63652970Y-41698132D01*
X63801088Y-41846509D01*
X63994713Y-41926909D01*
X64073063Y-41926977D01*
X64072908Y-42104367D01*
X64152970Y-42298132D01*
X64301088Y-42446509D01*
X64494713Y-42526909D01*
X64704367Y-42527092D01*
X64898132Y-42447030D01*
X65046509Y-42298912D01*
X65126909Y-42105287D01*
X65127092Y-41895633D01*
X65047030Y-41701868D01*
X64898912Y-41553491D01*
X64705287Y-41473091D01*
X64626937Y-41473023D01*
X64627092Y-41295633D01*
X64547030Y-41101868D01*
X64398912Y-40953491D01*
X64205287Y-40873091D01*
X63995633Y-40872908D01*
X63801868Y-40952970D01*
X63653491Y-41101088D01*
X63573091Y-41294713D01*
X63572908Y-41504367D01*
X63043811Y-41504367D01*
X63183893Y-41364530D01*
X63264293Y-41170905D01*
X63264476Y-40961251D01*
X63184414Y-40767486D01*
X63036296Y-40619109D01*
X62842671Y-40538709D01*
X62633017Y-40538526D01*
X62439252Y-40618588D01*
X62290875Y-40766706D01*
X62210475Y-40960331D01*
X62210292Y-41169985D01*
X54075176Y-41169985D01*
X54047030Y-41101868D01*
X53898912Y-40953491D01*
X53705287Y-40873091D01*
X53495633Y-40872908D01*
X53301868Y-40952970D01*
X53153491Y-41101088D01*
X53073091Y-41294713D01*
X53072908Y-41504367D01*
X44941044Y-41504367D01*
X44946509Y-41498912D01*
X45026909Y-41305287D01*
X45027092Y-41095633D01*
X44947030Y-40901868D01*
X44798912Y-40753491D01*
X44605287Y-40673091D01*
X44395633Y-40672908D01*
X44201868Y-40752970D01*
X44053491Y-40901088D01*
X43973091Y-41094713D01*
X43972908Y-41304367D01*
X40377000Y-41304367D01*
X40377000Y-40377000D01*
X74623000Y-40377000D01*
X74623000Y-48697394D01*
X74623000Y-48697394D01*
G37*
X74623000Y-48697394D02*
X74547394Y-48773000D01*
X69600000Y-48773000D01*
X69550590Y-48783006D01*
X69510197Y-48810197D01*
X68810197Y-49510197D01*
X68782334Y-49552211D01*
X68773000Y-49600000D01*
X68773000Y-50400000D01*
X68783006Y-50449410D01*
X68798400Y-50476200D01*
X69073000Y-50842333D01*
X69073000Y-53100000D01*
X69083006Y-53149410D01*
X69110197Y-53189803D01*
X69210197Y-53289803D01*
X69252211Y-53317666D01*
X69300000Y-53327000D01*
X74623000Y-53327000D01*
X74623000Y-59623000D01*
X68922204Y-59623000D01*
X69046509Y-59498912D01*
X69126909Y-59305287D01*
X69127092Y-59095633D01*
X69047030Y-58901868D01*
X68898912Y-58753491D01*
X68705287Y-58673091D01*
X68495633Y-58672908D01*
X68301868Y-58752970D01*
X68153491Y-58901088D01*
X68073091Y-59094713D01*
X68072908Y-59304367D01*
X68152970Y-59498132D01*
X68277620Y-59623000D01*
X67822204Y-59623000D01*
X67946509Y-59498912D01*
X68026909Y-59305287D01*
X68027092Y-59095633D01*
X67947030Y-58901868D01*
X67798912Y-58753491D01*
X67605287Y-58673091D01*
X67395633Y-58672908D01*
X67201868Y-58752970D01*
X67150040Y-58804708D01*
X67098912Y-58753491D01*
X66905287Y-58673091D01*
X66695633Y-58672908D01*
X66501868Y-58752970D01*
X66353491Y-58901088D01*
X66273091Y-59094713D01*
X66272908Y-59304367D01*
X66352970Y-59498132D01*
X66477620Y-59623000D01*
X59067655Y-59623000D01*
X59067782Y-59477013D01*
X58987720Y-59283248D01*
X58839602Y-59134871D01*
X58645977Y-59054471D01*
X58436323Y-59054288D01*
X58242558Y-59134350D01*
X58094181Y-59282468D01*
X58013781Y-59476093D01*
X58013653Y-59623000D01*
X40377000Y-59623000D01*
X40377000Y-58604367D01*
X48272908Y-58604367D01*
X48352970Y-58798132D01*
X48501088Y-58946509D01*
X48694713Y-59026909D01*
X48904367Y-59027092D01*
X49098132Y-58947030D01*
X49246509Y-58798912D01*
X49326909Y-58605287D01*
X49326909Y-58604367D01*
X51022918Y-58604367D01*
X51102980Y-58798132D01*
X51251098Y-58946509D01*
X51444723Y-59026909D01*
X51654377Y-59027092D01*
X51848142Y-58947030D01*
X51996519Y-58798912D01*
X52076919Y-58605287D01*
X52077102Y-58395633D01*
X51997040Y-58201868D01*
X51848922Y-58053491D01*
X51655297Y-57973091D01*
X51445643Y-57972908D01*
X51251878Y-58052970D01*
X51103501Y-58201088D01*
X51023101Y-58394713D01*
X51022918Y-58604367D01*
X49326909Y-58604367D01*
X49327092Y-58395633D01*
X49247030Y-58201868D01*
X49098912Y-58053491D01*
X48905287Y-57973091D01*
X48695633Y-57972908D01*
X48501868Y-58052970D01*
X48353491Y-58201088D01*
X48273091Y-58394713D01*
X48272908Y-58604367D01*
X40377000Y-58604367D01*
X40377000Y-57904367D01*
X54672908Y-57904367D01*
X54752970Y-58098132D01*
X54901088Y-58246509D01*
X54973020Y-58276378D01*
X54972908Y-58404367D01*
X55052970Y-58598132D01*
X55201088Y-58746509D01*
X55394713Y-58826909D01*
X55604367Y-58827092D01*
X55798132Y-58747030D01*
X55946509Y-58598912D01*
X56026909Y-58405287D01*
X56027092Y-58195633D01*
X55947030Y-58001868D01*
X55798912Y-57853491D01*
X55726980Y-57823622D01*
X55727092Y-57695633D01*
X55647030Y-57501868D01*
X55499787Y-57354367D01*
X58222908Y-57354367D01*
X58302970Y-57548132D01*
X58451088Y-57696509D01*
X58644713Y-57776909D01*
X58854367Y-57777092D01*
X59048132Y-57697030D01*
X59196509Y-57548912D01*
X59276909Y-57355287D01*
X59277092Y-57145633D01*
X59197030Y-56951868D01*
X59048912Y-56803491D01*
X58855287Y-56723091D01*
X58645633Y-56722908D01*
X58451868Y-56802970D01*
X58303491Y-56951088D01*
X58223091Y-57144713D01*
X58222908Y-57354367D01*
X55499787Y-57354367D01*
X55498912Y-57353491D01*
X55305287Y-57273091D01*
X55095633Y-57272908D01*
X54901868Y-57352970D01*
X54753491Y-57501088D01*
X54673091Y-57694713D01*
X54672908Y-57904367D01*
X40377000Y-57904367D01*
X40377000Y-56704367D01*
X48272908Y-56704367D01*
X48352970Y-56898132D01*
X48501088Y-57046509D01*
X48694713Y-57126909D01*
X48904367Y-57127092D01*
X49098132Y-57047030D01*
X49246509Y-56898912D01*
X49326909Y-56705287D01*
X49327084Y-56504367D01*
X51272908Y-56504367D01*
X51352970Y-56698132D01*
X51501088Y-56846509D01*
X51694713Y-56926909D01*
X51904367Y-56927092D01*
X52098132Y-56847030D01*
X52246509Y-56698912D01*
X52326909Y-56505287D01*
X52327092Y-56295633D01*
X52248063Y-56104367D01*
X62222908Y-56104367D01*
X62302970Y-56298132D01*
X62451088Y-56446509D01*
X62644713Y-56526909D01*
X62772976Y-56527021D01*
X62772908Y-56604367D01*
X62852970Y-56798132D01*
X63001088Y-56946509D01*
X63194713Y-57026909D01*
X63328477Y-57027026D01*
X63203493Y-57151792D01*
X63123093Y-57345417D01*
X63122910Y-57555071D01*
X63202972Y-57748836D01*
X63351090Y-57897213D01*
X63473045Y-57947853D01*
X63472908Y-58104367D01*
X63550778Y-58292826D01*
X63415392Y-58427975D01*
X63334992Y-58621600D01*
X63334809Y-58831254D01*
X63414871Y-59025019D01*
X63562989Y-59173396D01*
X63756614Y-59253796D01*
X63966268Y-59253979D01*
X64160033Y-59173917D01*
X64308410Y-59025799D01*
X64388810Y-58832174D01*
X64388983Y-58634295D01*
X64451088Y-58696509D01*
X64644713Y-58776909D01*
X64854367Y-58777092D01*
X65048132Y-58697030D01*
X65196509Y-58548912D01*
X65276909Y-58355287D01*
X65277092Y-58145633D01*
X65197030Y-57951868D01*
X65149614Y-57904369D01*
X70222908Y-57904369D01*
X70302970Y-58098134D01*
X70451088Y-58246511D01*
X70644713Y-58326911D01*
X70854367Y-58327094D01*
X71048132Y-58247032D01*
X71196509Y-58098914D01*
X71276909Y-57905289D01*
X71277092Y-57695635D01*
X71197030Y-57501870D01*
X71048912Y-57353493D01*
X70855287Y-57273093D01*
X70645633Y-57272910D01*
X70451868Y-57352972D01*
X70303491Y-57501090D01*
X70223091Y-57694715D01*
X70222908Y-57904369D01*
X65149614Y-57904369D01*
X65048912Y-57803491D01*
X64855287Y-57723091D01*
X64645633Y-57722908D01*
X64483418Y-57789934D01*
X64447030Y-57701868D01*
X64298912Y-57553491D01*
X64176957Y-57502851D01*
X64177094Y-57346337D01*
X64097032Y-57152572D01*
X63948914Y-57004195D01*
X63755289Y-56923795D01*
X63621525Y-56923678D01*
X63746509Y-56798912D01*
X63826909Y-56605287D01*
X63827092Y-56395633D01*
X63747030Y-56201868D01*
X63598912Y-56053491D01*
X63405287Y-55973091D01*
X63277024Y-55972979D01*
X63277092Y-55895633D01*
X63197030Y-55701868D01*
X63048912Y-55553491D01*
X62855287Y-55473091D01*
X62645633Y-55472908D01*
X62451868Y-55552970D01*
X62303491Y-55701088D01*
X62223091Y-55894713D01*
X62222908Y-56104367D01*
X52248063Y-56104367D01*
X52247030Y-56101868D01*
X52098912Y-55953491D01*
X51905287Y-55873091D01*
X51695633Y-55872908D01*
X51501868Y-55952970D01*
X51353491Y-56101088D01*
X51273091Y-56294713D01*
X51272908Y-56504367D01*
X49327084Y-56504367D01*
X49327092Y-56495633D01*
X49247030Y-56301868D01*
X49098912Y-56153491D01*
X48905287Y-56073091D01*
X48695633Y-56072908D01*
X48501868Y-56152970D01*
X48353491Y-56301088D01*
X48273091Y-56494713D01*
X48272908Y-56704367D01*
X40377000Y-56704367D01*
X40377000Y-55004367D01*
X69672908Y-55004367D01*
X69752970Y-55198132D01*
X69901088Y-55346509D01*
X70094713Y-55426909D01*
X70304367Y-55427092D01*
X70498132Y-55347030D01*
X70646509Y-55198912D01*
X70726909Y-55005287D01*
X70727092Y-54795633D01*
X70647030Y-54601868D01*
X70498912Y-54453491D01*
X70305287Y-54373091D01*
X70095633Y-54372908D01*
X69901868Y-54452970D01*
X69753491Y-54601088D01*
X69673091Y-54794713D01*
X69672908Y-55004367D01*
X40377000Y-55004367D01*
X40377000Y-53569367D01*
X55172918Y-53569367D01*
X55252980Y-53763132D01*
X55401098Y-53911509D01*
X55594723Y-53991909D01*
X55804377Y-53992092D01*
X55998142Y-53912030D01*
X56146519Y-53763912D01*
X56226919Y-53570287D01*
X56227102Y-53360633D01*
X56147040Y-53166868D01*
X55998922Y-53018491D01*
X55805297Y-52938091D01*
X55595643Y-52937908D01*
X55401878Y-53017970D01*
X55253501Y-53166088D01*
X55173101Y-53359713D01*
X55172918Y-53569367D01*
X40377000Y-53569367D01*
X40377000Y-52504367D01*
X53772908Y-52504367D01*
X53852970Y-52698132D01*
X54001088Y-52846509D01*
X54194713Y-52926909D01*
X54404367Y-52927092D01*
X54580375Y-52854367D01*
X58722908Y-52854367D01*
X58802970Y-53048132D01*
X58951088Y-53196509D01*
X59144713Y-53276909D01*
X59354367Y-53277092D01*
X59548132Y-53197030D01*
X59696509Y-53048912D01*
X59776909Y-52855287D01*
X59777092Y-52645633D01*
X59697030Y-52451868D01*
X59599700Y-52354367D01*
X60972908Y-52354367D01*
X61052970Y-52548132D01*
X61117207Y-52612481D01*
X61053491Y-52676086D01*
X60973091Y-52869711D01*
X60972908Y-53079365D01*
X61052970Y-53273130D01*
X61201088Y-53421507D01*
X61394713Y-53501907D01*
X61604367Y-53502090D01*
X61798132Y-53422028D01*
X61946509Y-53273910D01*
X62026909Y-53080285D01*
X62026916Y-53072207D01*
X62101088Y-53146509D01*
X62294713Y-53226909D01*
X62504367Y-53227092D01*
X62698132Y-53147030D01*
X62846509Y-52998912D01*
X62906529Y-52854367D01*
X66722908Y-52854367D01*
X66802970Y-53048132D01*
X66951088Y-53196509D01*
X67144713Y-53276909D01*
X67354367Y-53277092D01*
X67548132Y-53197030D01*
X67696509Y-53048912D01*
X67776909Y-52855287D01*
X67776909Y-52854367D01*
X67972908Y-52854367D01*
X68052970Y-53048132D01*
X68201088Y-53196509D01*
X68394713Y-53276909D01*
X68604367Y-53277092D01*
X68798132Y-53197030D01*
X68946509Y-53048912D01*
X69026909Y-52855287D01*
X69027092Y-52645633D01*
X68947030Y-52451868D01*
X68798912Y-52303491D01*
X68605287Y-52223091D01*
X68395633Y-52222908D01*
X68201868Y-52302970D01*
X68053491Y-52451088D01*
X67973091Y-52644713D01*
X67972908Y-52854367D01*
X67776909Y-52854367D01*
X67777092Y-52645633D01*
X67697030Y-52451868D01*
X67548912Y-52303491D01*
X67355287Y-52223091D01*
X67145633Y-52222908D01*
X66951868Y-52302970D01*
X66803491Y-52451088D01*
X66723091Y-52644713D01*
X66722908Y-52854367D01*
X62906529Y-52854367D01*
X62926909Y-52805287D01*
X62927092Y-52595633D01*
X62847030Y-52401868D01*
X62698912Y-52253491D01*
X62505287Y-52173091D01*
X62295633Y-52172908D01*
X62101868Y-52252970D01*
X62026933Y-52327774D01*
X62027092Y-52145633D01*
X61947030Y-51951868D01*
X61798912Y-51803491D01*
X61605287Y-51723091D01*
X61395633Y-51722908D01*
X61201868Y-51802970D01*
X61053491Y-51951088D01*
X60973091Y-52144713D01*
X60972908Y-52354367D01*
X59599700Y-52354367D01*
X59548912Y-52303491D01*
X59355287Y-52223091D01*
X59145633Y-52222908D01*
X58951868Y-52302970D01*
X58803491Y-52451088D01*
X58723091Y-52644713D01*
X58722908Y-52854367D01*
X54580375Y-52854367D01*
X54598132Y-52847030D01*
X54746509Y-52698912D01*
X54826909Y-52505287D01*
X54827092Y-52295633D01*
X54747030Y-52101868D01*
X54598912Y-51953491D01*
X54405287Y-51873091D01*
X54195633Y-51872908D01*
X54001868Y-51952970D01*
X53853491Y-52101088D01*
X53773091Y-52294713D01*
X53772908Y-52504367D01*
X40377000Y-52504367D01*
X40377000Y-50704367D01*
X47272908Y-50704367D01*
X47352970Y-50898132D01*
X47501088Y-51046509D01*
X47694713Y-51126909D01*
X47904367Y-51127092D01*
X48098132Y-51047030D01*
X48140869Y-51004367D01*
X54072908Y-51004367D01*
X54152970Y-51198132D01*
X54301088Y-51346509D01*
X54494713Y-51426909D01*
X54704367Y-51427092D01*
X54759365Y-51404367D01*
X58572908Y-51404367D01*
X58652970Y-51598132D01*
X58801088Y-51746509D01*
X58994713Y-51826909D01*
X59204367Y-51827092D01*
X59398132Y-51747030D01*
X59440869Y-51704367D01*
X62672919Y-51704367D01*
X62752981Y-51898132D01*
X62901099Y-52046509D01*
X63094724Y-52126909D01*
X63304378Y-52127092D01*
X63498143Y-52047030D01*
X63646520Y-51898912D01*
X63726920Y-51705287D01*
X63727103Y-51495633D01*
X63647041Y-51301868D01*
X63498923Y-51153491D01*
X63305298Y-51073091D01*
X63095644Y-51072908D01*
X62901879Y-51152970D01*
X62753502Y-51301088D01*
X62673102Y-51494713D01*
X62672919Y-51704367D01*
X59440869Y-51704367D01*
X59546509Y-51598912D01*
X59626909Y-51405287D01*
X59627092Y-51195633D01*
X59547030Y-51001868D01*
X59508595Y-50963366D01*
X59548132Y-50947030D01*
X59696509Y-50798912D01*
X59776909Y-50605287D01*
X59776909Y-50604367D01*
X61222908Y-50604367D01*
X61302970Y-50798132D01*
X61451088Y-50946509D01*
X61644713Y-51026909D01*
X61854367Y-51027092D01*
X62048132Y-50947030D01*
X62196509Y-50798912D01*
X62276909Y-50605287D01*
X62277092Y-50395633D01*
X62197030Y-50201868D01*
X62099700Y-50104367D01*
X63272908Y-50104367D01*
X63352970Y-50298132D01*
X63501088Y-50446509D01*
X63551013Y-50467239D01*
X63498081Y-50594713D01*
X63497898Y-50804367D01*
X63577960Y-50998132D01*
X63726078Y-51146509D01*
X63919703Y-51226909D01*
X64129357Y-51227092D01*
X64323122Y-51147030D01*
X64471499Y-50998912D01*
X64551899Y-50805287D01*
X64552082Y-50595633D01*
X64523732Y-50527022D01*
X64604367Y-50527092D01*
X64798132Y-50447030D01*
X64946509Y-50298912D01*
X65026909Y-50105287D01*
X65027092Y-49895633D01*
X64947030Y-49701868D01*
X64798912Y-49553491D01*
X64605287Y-49473091D01*
X64395633Y-49472908D01*
X64201868Y-49552970D01*
X64150040Y-49604708D01*
X64098912Y-49553491D01*
X63905287Y-49473091D01*
X63695633Y-49472908D01*
X63501868Y-49552970D01*
X63353491Y-49701088D01*
X63273091Y-49894713D01*
X63272908Y-50104367D01*
X62099700Y-50104367D01*
X62048912Y-50053491D01*
X61855287Y-49973091D01*
X61645633Y-49972908D01*
X61451868Y-50052970D01*
X61303491Y-50201088D01*
X61223091Y-50394713D01*
X61222908Y-50604367D01*
X59776909Y-50604367D01*
X59777092Y-50395633D01*
X59697030Y-50201868D01*
X59548912Y-50053491D01*
X59355287Y-49973091D01*
X59145633Y-49972908D01*
X58951868Y-50052970D01*
X58803491Y-50201088D01*
X58723091Y-50394713D01*
X58722908Y-50604367D01*
X58802970Y-50798132D01*
X58841405Y-50836634D01*
X58801868Y-50852970D01*
X58653491Y-51001088D01*
X58573091Y-51194713D01*
X58572908Y-51404367D01*
X54759365Y-51404367D01*
X54898132Y-51347030D01*
X55046509Y-51198912D01*
X55126909Y-51005287D01*
X55127092Y-50795633D01*
X55047030Y-50601868D01*
X54898912Y-50453491D01*
X54705287Y-50373091D01*
X54495633Y-50372908D01*
X54301868Y-50452970D01*
X54153491Y-50601088D01*
X54073091Y-50794713D01*
X54072908Y-51004367D01*
X48140869Y-51004367D01*
X48246509Y-50898912D01*
X48326909Y-50705287D01*
X48327092Y-50495633D01*
X48247030Y-50301868D01*
X48098912Y-50153491D01*
X47905287Y-50073091D01*
X47695633Y-50072908D01*
X47501868Y-50152970D01*
X47353491Y-50301088D01*
X47273091Y-50494713D01*
X47272908Y-50704367D01*
X40377000Y-50704367D01*
X40377000Y-50004367D01*
X52972908Y-50004367D01*
X53052970Y-50198132D01*
X53201088Y-50346509D01*
X53394713Y-50426909D01*
X53604367Y-50427092D01*
X53798132Y-50347030D01*
X53946509Y-50198912D01*
X54026909Y-50005287D01*
X54027092Y-49795633D01*
X54010701Y-49755964D01*
X54101088Y-49846509D01*
X54294713Y-49926909D01*
X54504367Y-49927092D01*
X54698132Y-49847030D01*
X54846509Y-49698912D01*
X54926909Y-49505287D01*
X54927084Y-49304367D01*
X58572908Y-49304367D01*
X58652970Y-49498132D01*
X58801088Y-49646509D01*
X58994713Y-49726909D01*
X59204367Y-49727092D01*
X59398132Y-49647030D01*
X59546509Y-49498912D01*
X59626909Y-49305287D01*
X59627092Y-49095633D01*
X59547030Y-48901868D01*
X59398912Y-48753491D01*
X59205287Y-48673091D01*
X58995633Y-48672908D01*
X58801868Y-48752970D01*
X58653491Y-48901088D01*
X58573091Y-49094713D01*
X58572908Y-49304367D01*
X54927084Y-49304367D01*
X54927092Y-49295633D01*
X54847030Y-49101868D01*
X54698912Y-48953491D01*
X54505287Y-48873091D01*
X54295633Y-48872908D01*
X54101868Y-48952970D01*
X53953491Y-49101088D01*
X53873091Y-49294713D01*
X53872908Y-49504367D01*
X53889299Y-49544036D01*
X53798912Y-49453491D01*
X53605287Y-49373091D01*
X53395633Y-49372908D01*
X53201868Y-49452970D01*
X53053491Y-49601088D01*
X52973091Y-49794713D01*
X52972908Y-50004367D01*
X40377000Y-50004367D01*
X40377000Y-48704367D01*
X51872908Y-48704367D01*
X51952970Y-48898132D01*
X52101088Y-49046509D01*
X52294713Y-49126909D01*
X52504367Y-49127092D01*
X52698132Y-49047030D01*
X52846509Y-48898912D01*
X52926909Y-48705287D01*
X52927092Y-48495633D01*
X52847030Y-48301868D01*
X52698912Y-48153491D01*
X52505287Y-48073091D01*
X52295633Y-48072908D01*
X52101868Y-48152970D01*
X51953491Y-48301088D01*
X51873091Y-48494713D01*
X51872908Y-48704367D01*
X40377000Y-48704367D01*
X40377000Y-47601675D01*
X51735893Y-47601675D01*
X51815955Y-47795440D01*
X51964073Y-47943817D01*
X52157698Y-48024217D01*
X52367352Y-48024400D01*
X52561117Y-47944338D01*
X52701332Y-47804367D01*
X55372908Y-47804367D01*
X55452970Y-47998132D01*
X55601088Y-48146509D01*
X55794713Y-48226909D01*
X56004367Y-48227092D01*
X56198132Y-48147030D01*
X56346509Y-47998912D01*
X56426909Y-47805287D01*
X56426997Y-47704367D01*
X56447918Y-47704367D01*
X56527980Y-47898132D01*
X56676098Y-48046509D01*
X56869723Y-48126909D01*
X57079377Y-48127092D01*
X57202582Y-48076185D01*
X57252970Y-48198132D01*
X57401088Y-48346509D01*
X57594713Y-48426909D01*
X57804367Y-48427092D01*
X57998132Y-48347030D01*
X58146509Y-48198912D01*
X58226909Y-48005287D01*
X58226951Y-47957248D01*
X58394713Y-48026909D01*
X58604367Y-48027092D01*
X58798132Y-47947030D01*
X58849960Y-47895292D01*
X58901088Y-47946509D01*
X59094713Y-48026909D01*
X59304367Y-48027092D01*
X59498132Y-47947030D01*
X59646509Y-47798912D01*
X59726909Y-47605287D01*
X59727092Y-47395633D01*
X59647030Y-47201868D01*
X59498912Y-47053491D01*
X59305287Y-46973091D01*
X59095633Y-46972908D01*
X58901868Y-47052970D01*
X58850040Y-47104708D01*
X58798912Y-47053491D01*
X58605287Y-46973091D01*
X58395633Y-46972908D01*
X58201868Y-47052970D01*
X58053491Y-47201088D01*
X57973091Y-47394713D01*
X57973049Y-47442752D01*
X57805287Y-47373091D01*
X57595633Y-47372908D01*
X57472428Y-47423815D01*
X57422040Y-47301868D01*
X57273922Y-47153491D01*
X57080297Y-47073091D01*
X56870643Y-47072908D01*
X56676878Y-47152970D01*
X56528501Y-47301088D01*
X56448101Y-47494713D01*
X56447918Y-47704367D01*
X56426997Y-47704367D01*
X56427092Y-47595633D01*
X56347030Y-47401868D01*
X56198912Y-47253491D01*
X56005287Y-47173091D01*
X55795633Y-47172908D01*
X55601868Y-47252970D01*
X55453491Y-47401088D01*
X55373091Y-47594713D01*
X55372908Y-47804367D01*
X52701332Y-47804367D01*
X52709494Y-47796220D01*
X52789894Y-47602595D01*
X52790077Y-47392941D01*
X52710015Y-47199176D01*
X52561897Y-47050799D01*
X52368272Y-46970399D01*
X52158618Y-46970216D01*
X51964853Y-47050278D01*
X51816476Y-47198396D01*
X51736076Y-47392021D01*
X51735893Y-47601675D01*
X40377000Y-47601675D01*
X40377000Y-46704367D01*
X59672908Y-46704367D01*
X59752970Y-46898132D01*
X59901088Y-47046509D01*
X60094713Y-47126909D01*
X60304367Y-47127092D01*
X60344036Y-47110701D01*
X60253491Y-47201088D01*
X60173091Y-47394713D01*
X60172908Y-47604367D01*
X60252970Y-47798132D01*
X60354621Y-47899960D01*
X60353491Y-47901088D01*
X60273091Y-48094713D01*
X60272908Y-48304367D01*
X60352970Y-48498132D01*
X60501088Y-48646509D01*
X60694713Y-48726909D01*
X60904367Y-48727092D01*
X61098132Y-48647030D01*
X61130436Y-48614782D01*
X61174955Y-48659379D01*
X61368580Y-48739779D01*
X61578234Y-48739962D01*
X61771999Y-48659900D01*
X61844471Y-48587554D01*
X65847907Y-48587554D01*
X65927969Y-48781319D01*
X66076087Y-48929696D01*
X66120737Y-48948236D01*
X66094578Y-48959045D01*
X65946201Y-49107163D01*
X65865801Y-49300788D01*
X65865618Y-49510442D01*
X65945680Y-49704207D01*
X66093798Y-49852584D01*
X66287423Y-49932984D01*
X66497077Y-49933167D01*
X66690842Y-49853105D01*
X66839219Y-49704987D01*
X66872978Y-49623685D01*
X66872908Y-49704367D01*
X66952970Y-49898132D01*
X67101088Y-50046509D01*
X67294713Y-50126909D01*
X67504367Y-50127092D01*
X67698132Y-50047030D01*
X67846509Y-49898912D01*
X67926909Y-49705287D01*
X67927092Y-49495633D01*
X67847030Y-49301868D01*
X67698912Y-49153491D01*
X67505287Y-49073091D01*
X67295633Y-49072908D01*
X67101868Y-49152970D01*
X66953491Y-49301088D01*
X66919732Y-49382390D01*
X66919802Y-49301708D01*
X66839740Y-49107943D01*
X66691622Y-48959566D01*
X66646972Y-48941026D01*
X66673131Y-48930217D01*
X66821508Y-48782099D01*
X66901908Y-48588474D01*
X66902091Y-48378820D01*
X66822029Y-48185055D01*
X66673911Y-48036678D01*
X66480286Y-47956278D01*
X66270632Y-47956095D01*
X66076867Y-48036157D01*
X65928490Y-48184275D01*
X65848090Y-48377900D01*
X65847907Y-48587554D01*
X61844471Y-48587554D01*
X61920376Y-48511782D01*
X62000776Y-48318157D01*
X62000959Y-48108503D01*
X61920897Y-47914738D01*
X61772779Y-47766361D01*
X61579154Y-47685961D01*
X61369500Y-47685778D01*
X61175735Y-47765840D01*
X61149273Y-47792256D01*
X61226909Y-47605287D01*
X61227092Y-47395633D01*
X61148063Y-47204367D01*
X61372908Y-47204367D01*
X61452970Y-47398132D01*
X61601088Y-47546509D01*
X61794713Y-47626909D01*
X62004367Y-47627092D01*
X62050631Y-47607976D01*
X61973091Y-47794713D01*
X61972908Y-48004367D01*
X62052970Y-48198132D01*
X62201088Y-48346509D01*
X62394713Y-48426909D01*
X62604367Y-48427092D01*
X62798132Y-48347030D01*
X62946509Y-48198912D01*
X63026909Y-48005287D01*
X63027092Y-47795633D01*
X62947030Y-47601868D01*
X62798912Y-47453491D01*
X62605287Y-47373091D01*
X62395633Y-47372908D01*
X62349369Y-47392024D01*
X62426909Y-47205287D01*
X62427092Y-46995633D01*
X62348063Y-46804367D01*
X63772908Y-46804367D01*
X63852970Y-46998132D01*
X64001088Y-47146509D01*
X64194713Y-47226909D01*
X64404367Y-47227092D01*
X64598132Y-47147030D01*
X64746509Y-46998912D01*
X64826909Y-46805287D01*
X64827092Y-46595633D01*
X64747030Y-46401868D01*
X64598912Y-46253491D01*
X64480609Y-46204367D01*
X71372908Y-46204367D01*
X71452970Y-46398132D01*
X71601088Y-46546509D01*
X71794713Y-46626909D01*
X72004367Y-46627092D01*
X72198132Y-46547030D01*
X72346509Y-46398912D01*
X72426909Y-46205287D01*
X72427092Y-45995633D01*
X72347030Y-45801868D01*
X72198912Y-45653491D01*
X72005287Y-45573091D01*
X71795633Y-45572908D01*
X71601868Y-45652970D01*
X71453491Y-45801088D01*
X71373091Y-45994713D01*
X71372908Y-46204367D01*
X64480609Y-46204367D01*
X64405287Y-46173091D01*
X64195633Y-46172908D01*
X64001868Y-46252970D01*
X63853491Y-46401088D01*
X63773091Y-46594713D01*
X63772908Y-46804367D01*
X62348063Y-46804367D01*
X62347030Y-46801868D01*
X62198912Y-46653491D01*
X62005287Y-46573091D01*
X61795633Y-46572908D01*
X61601868Y-46652970D01*
X61453491Y-46801088D01*
X61373091Y-46994713D01*
X61372908Y-47204367D01*
X61148063Y-47204367D01*
X61147030Y-47201868D01*
X60998912Y-47053491D01*
X60805287Y-46973091D01*
X60595633Y-46972908D01*
X60555964Y-46989299D01*
X60646509Y-46898912D01*
X60726909Y-46705287D01*
X60727092Y-46495633D01*
X60647030Y-46301868D01*
X60498912Y-46153491D01*
X60305287Y-46073091D01*
X60095633Y-46072908D01*
X59901868Y-46152970D01*
X59753491Y-46301088D01*
X59673091Y-46494713D01*
X59672908Y-46704367D01*
X40377000Y-46704367D01*
X40377000Y-45704367D01*
X45872908Y-45704367D01*
X45952970Y-45898132D01*
X46101088Y-46046509D01*
X46294713Y-46126909D01*
X46504367Y-46127092D01*
X46698132Y-46047030D01*
X46846509Y-45898912D01*
X46926909Y-45705287D01*
X46927092Y-45495633D01*
X46847030Y-45301868D01*
X46698912Y-45153491D01*
X46580609Y-45104367D01*
X53572908Y-45104367D01*
X53652970Y-45298132D01*
X53801088Y-45446509D01*
X53973071Y-45517922D01*
X53972908Y-45704367D01*
X54052970Y-45898132D01*
X54201088Y-46046509D01*
X54394713Y-46126909D01*
X54604367Y-46127092D01*
X54798132Y-46047030D01*
X54946509Y-45898912D01*
X55026909Y-45705287D01*
X55027092Y-45495633D01*
X54947030Y-45301868D01*
X54798912Y-45153491D01*
X54626929Y-45082078D01*
X54627092Y-44895633D01*
X54547030Y-44701868D01*
X54398912Y-44553491D01*
X54205287Y-44473091D01*
X53995633Y-44472908D01*
X53801868Y-44552970D01*
X53653491Y-44701088D01*
X53573091Y-44894713D01*
X53572908Y-45104367D01*
X46580609Y-45104367D01*
X46505287Y-45073091D01*
X46295633Y-45072908D01*
X46101868Y-45152970D01*
X45953491Y-45301088D01*
X45873091Y-45494713D01*
X45872908Y-45704367D01*
X40377000Y-45704367D01*
X40377000Y-44179365D01*
X49572908Y-44179365D01*
X49652970Y-44373130D01*
X49801088Y-44521507D01*
X49994713Y-44601907D01*
X50204367Y-44602090D01*
X50398132Y-44522028D01*
X50546509Y-44373910D01*
X50626909Y-44180285D01*
X50627092Y-43970631D01*
X50547030Y-43776866D01*
X50398912Y-43628489D01*
X50205287Y-43548089D01*
X49995633Y-43547906D01*
X49801868Y-43627968D01*
X49653491Y-43776086D01*
X49573091Y-43969711D01*
X49572908Y-44179365D01*
X40377000Y-44179365D01*
X40377000Y-43515250D01*
X53883791Y-43515250D01*
X53963853Y-43709015D01*
X54111971Y-43857392D01*
X54305596Y-43937792D01*
X54515250Y-43937975D01*
X54709015Y-43857913D01*
X54857392Y-43709795D01*
X54859645Y-43704367D01*
X60272908Y-43704367D01*
X60352970Y-43898132D01*
X60501088Y-44046509D01*
X60519077Y-44053979D01*
X60498086Y-44104532D01*
X60497903Y-44314186D01*
X60577965Y-44507951D01*
X60726083Y-44656328D01*
X60919708Y-44736728D01*
X61129362Y-44736911D01*
X61133585Y-44735166D01*
X61159600Y-44798127D01*
X61307718Y-44946504D01*
X61501343Y-45026904D01*
X61710997Y-45027087D01*
X61904762Y-44947025D01*
X62024711Y-44827285D01*
X62067492Y-44870140D01*
X62444821Y-45026821D01*
X62853387Y-45027178D01*
X63230989Y-44871156D01*
X63419482Y-44682991D01*
X63373091Y-44794713D01*
X63372908Y-45004367D01*
X63452970Y-45198132D01*
X63601088Y-45346509D01*
X63794713Y-45426909D01*
X63872976Y-45426977D01*
X63872908Y-45504367D01*
X63952970Y-45698132D01*
X64101088Y-45846509D01*
X64294713Y-45926909D01*
X64504367Y-45927092D01*
X64698132Y-45847030D01*
X64846509Y-45698912D01*
X64926909Y-45505287D01*
X64927092Y-45295633D01*
X64847030Y-45101868D01*
X64698912Y-44953491D01*
X64505287Y-44873091D01*
X64427024Y-44873023D01*
X64427092Y-44795633D01*
X64347030Y-44601868D01*
X64198912Y-44453491D01*
X64005287Y-44373091D01*
X63795633Y-44372908D01*
X63601868Y-44452970D01*
X63554149Y-44500606D01*
X63635634Y-44304367D01*
X68972908Y-44304367D01*
X69052970Y-44498132D01*
X69201088Y-44646509D01*
X69394713Y-44726909D01*
X69604367Y-44727092D01*
X69798132Y-44647030D01*
X69946509Y-44498912D01*
X70026909Y-44305287D01*
X70026997Y-44203387D01*
X71822822Y-44203387D01*
X71978844Y-44580989D01*
X72267492Y-44870140D01*
X72644821Y-45026821D01*
X73053387Y-45027178D01*
X73430989Y-44871156D01*
X73720140Y-44582508D01*
X73876821Y-44205179D01*
X73877178Y-43796613D01*
X73721156Y-43419011D01*
X73432508Y-43129860D01*
X73055179Y-42973179D01*
X72646613Y-42972822D01*
X72269011Y-43128844D01*
X71979860Y-43417492D01*
X71823179Y-43794821D01*
X71822822Y-44203387D01*
X70026997Y-44203387D01*
X70027092Y-44095633D01*
X69947030Y-43901868D01*
X69798912Y-43753491D01*
X69605287Y-43673091D01*
X69395633Y-43672908D01*
X69201868Y-43752970D01*
X69053491Y-43901088D01*
X68973091Y-44094713D01*
X68972908Y-44304367D01*
X63635634Y-44304367D01*
X63676821Y-44205179D01*
X63677178Y-43796613D01*
X63639063Y-43704367D01*
X67972908Y-43704367D01*
X68052970Y-43898132D01*
X68201088Y-44046509D01*
X68394713Y-44126909D01*
X68604367Y-44127092D01*
X68798132Y-44047030D01*
X68946509Y-43898912D01*
X69026909Y-43705287D01*
X69027092Y-43495633D01*
X68947030Y-43301868D01*
X68849700Y-43204367D01*
X70772908Y-43204367D01*
X70852970Y-43398132D01*
X71001088Y-43546509D01*
X71194713Y-43626909D01*
X71404367Y-43627092D01*
X71598132Y-43547030D01*
X71746509Y-43398912D01*
X71826909Y-43205287D01*
X71827092Y-42995633D01*
X71747030Y-42801868D01*
X71598912Y-42653491D01*
X71405287Y-42573091D01*
X71195633Y-42572908D01*
X71001868Y-42652970D01*
X70853491Y-42801088D01*
X70773091Y-42994713D01*
X70772908Y-43204367D01*
X68849700Y-43204367D01*
X68798912Y-43153491D01*
X68605287Y-43073091D01*
X68395633Y-43072908D01*
X68201868Y-43152970D01*
X68053491Y-43301088D01*
X67973091Y-43494713D01*
X67972908Y-43704367D01*
X63639063Y-43704367D01*
X63521156Y-43419011D01*
X63232508Y-43129860D01*
X62855179Y-42973179D01*
X62446613Y-42972822D01*
X62069011Y-43128844D01*
X61779860Y-43417492D01*
X61623179Y-43794821D01*
X61623023Y-43973008D01*
X61502263Y-43972903D01*
X61498040Y-43974648D01*
X61472025Y-43911687D01*
X61323907Y-43763310D01*
X61305918Y-43755840D01*
X61326909Y-43705287D01*
X61327092Y-43495633D01*
X61247030Y-43301868D01*
X61098912Y-43153491D01*
X60905287Y-43073091D01*
X60695633Y-43072908D01*
X60501868Y-43152970D01*
X60353491Y-43301088D01*
X60273091Y-43494713D01*
X60272908Y-43704367D01*
X54859645Y-43704367D01*
X54937792Y-43516170D01*
X54937975Y-43306516D01*
X54857913Y-43112751D01*
X54709795Y-42964374D01*
X54516170Y-42883974D01*
X54306516Y-42883791D01*
X54112751Y-42963853D01*
X53964374Y-43111971D01*
X53883974Y-43305596D01*
X53883791Y-43515250D01*
X40377000Y-43515250D01*
X40377000Y-42504367D01*
X48572908Y-42504367D01*
X48652970Y-42698132D01*
X48801088Y-42846509D01*
X48994713Y-42926909D01*
X49204367Y-42927092D01*
X49398132Y-42847030D01*
X49546509Y-42698912D01*
X49626909Y-42505287D01*
X49626997Y-42404367D01*
X53672908Y-42404367D01*
X53752970Y-42598132D01*
X53901088Y-42746509D01*
X54094713Y-42826909D01*
X54304367Y-42827092D01*
X54498132Y-42747030D01*
X54646509Y-42598912D01*
X54726909Y-42405287D01*
X54727065Y-42227025D01*
X54782290Y-42227073D01*
X54852970Y-42398132D01*
X55001088Y-42546509D01*
X55194713Y-42626909D01*
X55404367Y-42627092D01*
X55598132Y-42547030D01*
X55746509Y-42398912D01*
X55826909Y-42205287D01*
X55827084Y-42004367D01*
X60672908Y-42004367D01*
X60752970Y-42198132D01*
X60901088Y-42346509D01*
X61094713Y-42426909D01*
X61304367Y-42427092D01*
X61498132Y-42347030D01*
X61599960Y-42245379D01*
X61601088Y-42246509D01*
X61794713Y-42326909D01*
X62004367Y-42327092D01*
X62198132Y-42247030D01*
X62240869Y-42204367D01*
X62672908Y-42204367D01*
X62752970Y-42398132D01*
X62901088Y-42546509D01*
X63094713Y-42626909D01*
X63304367Y-42627092D01*
X63498132Y-42547030D01*
X63646509Y-42398912D01*
X63726909Y-42205287D01*
X63727092Y-41995633D01*
X63647030Y-41801868D01*
X63498912Y-41653491D01*
X63305287Y-41573091D01*
X63095633Y-41572908D01*
X62901868Y-41652970D01*
X62753491Y-41801088D01*
X62673091Y-41994713D01*
X62672908Y-42204367D01*
X62240869Y-42204367D01*
X62346509Y-42098912D01*
X62426909Y-41905287D01*
X62427092Y-41695633D01*
X62347030Y-41501868D01*
X62198912Y-41353491D01*
X62005287Y-41273091D01*
X61795633Y-41272908D01*
X61601868Y-41352970D01*
X61500040Y-41454621D01*
X61498912Y-41453491D01*
X61305287Y-41373091D01*
X61095633Y-41372908D01*
X60901868Y-41452970D01*
X60753491Y-41601088D01*
X60673091Y-41794713D01*
X60672908Y-42004367D01*
X55827084Y-42004367D01*
X55827092Y-41995633D01*
X55747030Y-41801868D01*
X55598912Y-41653491D01*
X55405287Y-41573091D01*
X55217710Y-41572927D01*
X55147030Y-41401868D01*
X54998912Y-41253491D01*
X54805287Y-41173091D01*
X54595633Y-41172908D01*
X54401868Y-41252970D01*
X54253491Y-41401088D01*
X54173091Y-41594713D01*
X54172935Y-41772975D01*
X54095633Y-41772908D01*
X53901868Y-41852970D01*
X53753491Y-42001088D01*
X53673091Y-42194713D01*
X53672908Y-42404367D01*
X49626997Y-42404367D01*
X49627092Y-42295633D01*
X49547030Y-42101868D01*
X49398912Y-41953491D01*
X49205287Y-41873091D01*
X48995633Y-41872908D01*
X48801868Y-41952970D01*
X48653491Y-42101088D01*
X48573091Y-42294713D01*
X48572908Y-42504367D01*
X40377000Y-42504367D01*
X40377000Y-41304367D01*
X43972908Y-41304367D01*
X44052970Y-41498132D01*
X44201088Y-41646509D01*
X44394713Y-41726909D01*
X44604367Y-41727092D01*
X44798132Y-41647030D01*
X44941044Y-41504367D01*
X53072908Y-41504367D01*
X53152970Y-41698132D01*
X53301088Y-41846509D01*
X53494713Y-41926909D01*
X53704367Y-41927092D01*
X53898132Y-41847030D01*
X54046509Y-41698912D01*
X54126909Y-41505287D01*
X54127092Y-41295633D01*
X54075176Y-41169985D01*
X62210292Y-41169985D01*
X62290354Y-41363750D01*
X62438472Y-41512127D01*
X62632097Y-41592527D01*
X62841751Y-41592710D01*
X63035516Y-41512648D01*
X63043811Y-41504367D01*
X63572908Y-41504367D01*
X63652970Y-41698132D01*
X63801088Y-41846509D01*
X63994713Y-41926909D01*
X64073063Y-41926977D01*
X64072908Y-42104367D01*
X64152970Y-42298132D01*
X64301088Y-42446509D01*
X64494713Y-42526909D01*
X64704367Y-42527092D01*
X64898132Y-42447030D01*
X65046509Y-42298912D01*
X65126909Y-42105287D01*
X65127092Y-41895633D01*
X65047030Y-41701868D01*
X64898912Y-41553491D01*
X64705287Y-41473091D01*
X64626937Y-41473023D01*
X64627092Y-41295633D01*
X64547030Y-41101868D01*
X64398912Y-40953491D01*
X64205287Y-40873091D01*
X63995633Y-40872908D01*
X63801868Y-40952970D01*
X63653491Y-41101088D01*
X63573091Y-41294713D01*
X63572908Y-41504367D01*
X63043811Y-41504367D01*
X63183893Y-41364530D01*
X63264293Y-41170905D01*
X63264476Y-40961251D01*
X63184414Y-40767486D01*
X63036296Y-40619109D01*
X62842671Y-40538709D01*
X62633017Y-40538526D01*
X62439252Y-40618588D01*
X62290875Y-40766706D01*
X62210475Y-40960331D01*
X62210292Y-41169985D01*
X54075176Y-41169985D01*
X54047030Y-41101868D01*
X53898912Y-40953491D01*
X53705287Y-40873091D01*
X53495633Y-40872908D01*
X53301868Y-40952970D01*
X53153491Y-41101088D01*
X53073091Y-41294713D01*
X53072908Y-41504367D01*
X44941044Y-41504367D01*
X44946509Y-41498912D01*
X45026909Y-41305287D01*
X45027092Y-41095633D01*
X44947030Y-40901868D01*
X44798912Y-40753491D01*
X44605287Y-40673091D01*
X44395633Y-40672908D01*
X44201868Y-40752970D01*
X44053491Y-40901088D01*
X43973091Y-41094713D01*
X43972908Y-41304367D01*
X40377000Y-41304367D01*
X40377000Y-40377000D01*
X74623000Y-40377000D01*
X74623000Y-48697394D01*
M02*
