G04 #@! TF.FileFunction,Other,ECO1*
%FSLAX46Y46*%
G04 Gerber Fmt 4.6, Leading zero omitted, Abs format (unit mm)*
G04 Created by KiCad (PCBNEW 4.0.2-stable) date 2016-06-02 02:45:38*
%MOMM*%
G01*
G04 APERTURE LIST*
%ADD10C,0.100000*%
%ADD11C,0.200000*%
G04 APERTURE END LIST*
D10*
D11*
X154000000Y-100900000D02*
X154000000Y-101400000D01*
X159200000Y-101400000D02*
X159200000Y-100900000D01*
X158700000Y-101400000D02*
X159200000Y-101400000D01*
X159200000Y-96600000D02*
X159200000Y-96700000D01*
X159200000Y-96200000D02*
X159200000Y-96600000D01*
X158700000Y-96200000D02*
X159200000Y-96200000D01*
X154000000Y-96200000D02*
X154500000Y-96200000D01*
X154000000Y-96700000D02*
X154000000Y-96200000D01*
X182400000Y-117500000D02*
X182400000Y-116800000D01*
X182400000Y-117500000D02*
X181700000Y-117500000D01*
X177100000Y-117500000D02*
X177800000Y-117500000D01*
X177100000Y-116800000D02*
X177100000Y-117500000D01*
X177100000Y-112200000D02*
X177600000Y-112200000D01*
X182400000Y-112200000D02*
X182400000Y-112900000D01*
X181700000Y-112200000D02*
X182400000Y-112200000D01*
X193800000Y-100300000D02*
X193100000Y-99600000D01*
X193800000Y-100100000D02*
X193300000Y-99600000D01*
X193800000Y-99900000D02*
X193500000Y-99600000D01*
X193800000Y-99600000D02*
X193800000Y-108600000D01*
X182800000Y-99600000D02*
X193800000Y-99600000D01*
X182800000Y-108600000D02*
X182800000Y-99600000D01*
X193800000Y-108600000D02*
X182800000Y-108600000D01*
X168800000Y-89700000D02*
X169700000Y-90600000D01*
X168800000Y-89800000D02*
X168800000Y-89700000D01*
X169600000Y-90600000D02*
X168800000Y-89800000D01*
X168800000Y-90000000D02*
X169600000Y-90600000D01*
X169400000Y-90600000D02*
X168800000Y-90000000D01*
X169300000Y-90600000D02*
X168800000Y-90100000D01*
X168800000Y-90200000D02*
X169000000Y-90600000D01*
X169200000Y-90600000D02*
X168800000Y-90200000D01*
X168800000Y-82600000D02*
X168800000Y-90600000D01*
X181800000Y-82600000D02*
X168800000Y-82600000D01*
X181800000Y-90600000D02*
X181800000Y-82600000D01*
X168800000Y-90600000D02*
X181800000Y-90600000D01*
X163400000Y-94100000D02*
X164100000Y-93400000D01*
X163400000Y-93900000D02*
X163900000Y-93400000D01*
X163600000Y-93500000D02*
X163700000Y-93400000D01*
X163400000Y-93700000D02*
X163600000Y-93500000D01*
X163400000Y-108400000D02*
X178400000Y-108400000D01*
X163400000Y-93400000D02*
X163400000Y-108400000D01*
X178400000Y-93400000D02*
X163400000Y-93400000D01*
X178400000Y-108400000D02*
X178400000Y-93400000D01*
M02*
