M48
;DRILL file {KiCad 4.0.2-stable} date 2016-06-02 02:45:35
;FORMAT={3:3/ absolute / metric / suppress leading zeros}
FMAT,2
METRIC,TZ
T1C0.254
T2C0.300
T3C0.840
T4C0.850
T5C0.950
T6C1.150
T7C2.400
T8C3.000
%
G90
G05
M71
T1
X125000Y-80500
X125000Y-81500
X125000Y-82500
X125000Y-83500
X125000Y-102000
X125000Y-103000
X125000Y-104000
X125000Y-105000
X125000Y-106000
X125000Y-107000
X125000Y-108000
X125000Y-110000
X125000Y-111000
X125000Y-112000
X125000Y-113000
X125000Y-114000
X125000Y-115000
X125000Y-116500
X125000Y-117500
X125000Y-118500
X125000Y-119500
X125000Y-120500
X125000Y-121500
X125500Y-84000
X125500Y-101500
X126000Y-80500
X126000Y-121500
X126500Y-84000
X126500Y-101500
X127000Y-80500
X127000Y-121500
X127500Y-84000
X127500Y-101500
X128000Y-80500
X128000Y-121500
X128500Y-84000
X128500Y-101500
X129000Y-80500
X129000Y-121500
X129400Y-113600
X129500Y-84000
X129500Y-101500
X129500Y-110400
X129500Y-111600
X130000Y-80500
X130000Y-121500
X130200Y-112100
X130500Y-84000
X130500Y-101500
X130900Y-112200
X131000Y-80500
X131200Y-110300
X131200Y-114200
X131500Y-120450
X131550Y-120000
X132000Y-80500
X132600Y-109900
X133000Y-80500
X134000Y-80500
X134000Y-101500
X135000Y-80500
X135000Y-101500
X135900Y-115300
X136000Y-80500
X136000Y-101500
X136000Y-109400
X136000Y-110400
X137000Y-80500
X137000Y-101500
X137000Y-111200
X137200Y-82000
X137200Y-82500
X137200Y-83000
X137200Y-102900
X137200Y-103500
X137200Y-104100
X138000Y-80500
X138000Y-101500
X138450Y-114900
X138450Y-115500
X138450Y-118700
X138450Y-119350
X138450Y-120000
X138500Y-114350
X139000Y-80500
X139000Y-101500
X140000Y-80500
X140000Y-101500
X140650Y-114300
X140650Y-115550
X140700Y-114950
X140750Y-118700
X140750Y-119300
X140750Y-119900
X141000Y-80500
X141000Y-101500
X142000Y-80500
X142000Y-101500
X143000Y-80500
X143000Y-101500
X143000Y-121500
X144000Y-80500
X144000Y-101500
X144000Y-121500
X145000Y-80500
X145000Y-101500
X145000Y-121500
X145300Y-85000
X145300Y-86600
X146000Y-80500
X146000Y-101500
X146000Y-121500
X147000Y-80500
X147000Y-101500
X147000Y-110300
X147000Y-121500
X147900Y-117075
X148000Y-80500
X148000Y-121500
X148350Y-98150
X148400Y-99100
X148400Y-100050
X148400Y-101000
X148450Y-101950
X149000Y-80500
X149000Y-121500
X149175Y-117100
X150000Y-80500
X150000Y-110300
X150000Y-121500
X150200Y-103300
X150450Y-106450
X150450Y-117125
X150500Y-113200
X150700Y-99100
X150700Y-100050
X150700Y-101000
X150700Y-101950
X150750Y-98150
X150900Y-103300
X151000Y-80500
X151000Y-121500
X151200Y-106450
X151400Y-100550
X151700Y-92550
X151750Y-117125
X151800Y-91850
X152000Y-121500
X152200Y-116700
X152400Y-103250
X152600Y-106450
X152975Y-117075
X153000Y-116500
X153000Y-121500
X153300Y-106500
X153675Y-98050
X153900Y-95050
X154000Y-121500
X154050Y-80950
X154050Y-81450
X154050Y-82050
X154275Y-117025
X154500Y-110500
X154550Y-106500
X154650Y-95050
X154750Y-91750
X154750Y-92750
X154750Y-101800
X155000Y-102300
X155000Y-121500
X155400Y-106500
X155500Y-110500
X155525Y-117050
X155700Y-102200
X155737Y-97938
X155737Y-99663
X156000Y-80500
X156000Y-121500
X156385Y-95795
X156500Y-110500
X156550Y-95300
X156650Y-106450
X156800Y-117100
X156900Y-95750
X157000Y-80500
X157000Y-121500
X157200Y-94900
X157400Y-113000
X157463Y-97938
X157463Y-99663
X157500Y-85800
X157575Y-92175
X157700Y-106450
X157850Y-95700
X157950Y-105550
X158000Y-80500
X158000Y-121500
X158050Y-117075
X158300Y-106450
X158500Y-83400
X158500Y-85600
X158600Y-92200
X158950Y-94350
X159000Y-80500
X159000Y-105500
X159000Y-121500
X159050Y-95350
X159325Y-117100
X159350Y-106450
X159350Y-113250
X159600Y-87200
X159650Y-99050
X159700Y-89400
X159782Y-97918
X159850Y-100550
X159900Y-96350
X160000Y-80500
X160000Y-83400
X160000Y-105500
X160000Y-121500
X160250Y-97300
X160450Y-95650
X160500Y-99550
X160600Y-98700
X160650Y-96900
X160800Y-85700
X160800Y-92200
X160800Y-93900
X160800Y-98100
X160800Y-114800
X161000Y-80500
X161000Y-106800
X161000Y-121500
X161250Y-99700
X161400Y-106300
X161500Y-97300
X161600Y-111100
X161600Y-111900
X161700Y-95600
X161800Y-92850
X161850Y-99900
X161900Y-86500
X161900Y-91850
X161900Y-98800
X161900Y-106900
X162000Y-80500
X162000Y-121500
X162275Y-87000
X162400Y-106300
X162500Y-99900
X162800Y-86500
X163000Y-80500
X163000Y-97700
X163000Y-121500
X163425Y-87000
X164000Y-80500
X164000Y-121500
X164400Y-84400
X164900Y-83900
X165000Y-80500
X165000Y-121500
X165300Y-86800
X165400Y-87800
X165400Y-88900
X165400Y-89700
X165400Y-90800
X165400Y-91800
X165400Y-119400
X165700Y-82500
X165700Y-85300
X165700Y-95700
X165700Y-96500
X165700Y-97300
X165700Y-98100
X165990Y-92935
X166000Y-80500
X166000Y-121500
X166050Y-110475
X166100Y-82100
X166300Y-85300
X166400Y-82500
X166400Y-117500
X166500Y-95700
X166500Y-96500
X166700Y-113200
X166800Y-82100
X166800Y-88200
X167000Y-80500
X167000Y-121500
X167100Y-83900
X167300Y-94900
X167300Y-95700
X167300Y-96500
X167400Y-100100
X167450Y-103300
X167850Y-97450
X167900Y-90100
X168000Y-80500
X168000Y-94000
X168000Y-121500
X168100Y-95700
X168100Y-106100
X168100Y-106900
X168100Y-107800
X168400Y-88600
X168450Y-97900
X168500Y-81000
X168500Y-82800
X168500Y-104400
X168900Y-95700
X168900Y-96500
X168900Y-97300
X168900Y-106900
X169000Y-80500
X169000Y-121500
X169100Y-83900
X169100Y-85900
X169200Y-81000
X169300Y-88600
X169300Y-104400
X169400Y-90100
X169700Y-97400
X169700Y-99700
X169700Y-100500
X169700Y-101300
X169700Y-106100
X169800Y-120200
X170000Y-80500
X170000Y-121500
X170100Y-83000
X170100Y-84600
X170100Y-87200
X170500Y-99700
X170500Y-100500
X170500Y-101300
X170500Y-106900
X170750Y-112850
X170900Y-81500
X170900Y-83800
X170900Y-84600
X170900Y-104400
X171000Y-80500
X171000Y-121500
X171200Y-91000
X171200Y-103400
X171300Y-87700
X171300Y-90200
X171300Y-99700
X171300Y-100500
X171300Y-101300
X171300Y-106100
X171400Y-81200
X171500Y-119600
X171700Y-83000
X171700Y-83800
X171700Y-84600
X171700Y-88600
X171700Y-94000
X171700Y-97300
X172000Y-80500
X172000Y-90600
X172000Y-121500
X172100Y-95700
X172100Y-105300
X172100Y-106100
X172498Y-92802
X172500Y-83800
X172500Y-90300
X172825Y-110350
X172900Y-95700
X172900Y-96500
X172908Y-106088
X173000Y-80500
X173000Y-81000
X173000Y-121500
X173200Y-86000
X173200Y-117900
X173300Y-83000
X173300Y-88600
X173302Y-84600
X173700Y-95700
X173700Y-96500
X173700Y-105300
X173800Y-104000
X174000Y-80500
X174000Y-121500
X174100Y-83800
X174100Y-84600
X174100Y-88600
X174100Y-89400
X174100Y-90300
X174100Y-97300
X174100Y-107800
X174100Y-112700
X174195Y-86348
X174300Y-117900
X174400Y-98500
X174500Y-95700
X174500Y-99650
X174500Y-105300
X174500Y-106100
X174600Y-100600
X174600Y-101400
X174900Y-81700
X174900Y-83000
X174900Y-83800
X174900Y-87800
X174900Y-88603
X174900Y-89400
X174900Y-108600
X175000Y-80500
X175000Y-121500
X175100Y-90700
X175300Y-95700
X175300Y-96500
X175300Y-98900
X175300Y-102900
X175300Y-105300
X175300Y-106100
X175300Y-118500
X175300Y-119600
X175400Y-120700
X175500Y-116800
X175535Y-108665
X175700Y-83800
X175700Y-88600
X175700Y-89400
X175800Y-87800
X176000Y-80500
X176000Y-114400
X176000Y-121500
X176100Y-91300
X176100Y-95700
X176100Y-96500
X176100Y-98100
X176100Y-98900
X176100Y-99700
X176100Y-104500
X176100Y-105300
X176100Y-113100
X176200Y-118500
X176200Y-120700
X176300Y-116700
X176300Y-119600
X176500Y-83000
X176500Y-83800
X176500Y-84600
X176500Y-92400
X176600Y-91700
X176900Y-86100
X176900Y-97292
X176900Y-106900
X177000Y-80500
X177000Y-112050
X177000Y-121500
X177185Y-81615
X177300Y-83800
X177300Y-82900
X177300Y-84600
X177500Y-112600
X177600Y-106800
X177812Y-103275
X178000Y-80500
X178000Y-98400
X178000Y-121500
X178100Y-99300
X178100Y-120250
X178168Y-117905
X178200Y-110200
X178400Y-103100
X178400Y-104000
X178500Y-104900
X178700Y-82000
X178700Y-96300
X178700Y-100900
X178700Y-102000
X178800Y-95000
X178800Y-97875
X178900Y-83000
X178900Y-84600
X178900Y-85400
X178900Y-89400
X178900Y-98900
X178900Y-118100
X178930Y-114018
X178930Y-115693
X179000Y-80500
X179000Y-90200
X179000Y-91800
X179000Y-121500
X179100Y-97000
X179200Y-103400
X179200Y-106000
X179450Y-111200
X179600Y-108400
X179700Y-82000
X179700Y-84600
X179700Y-85400
X179700Y-100900
X179700Y-102000
X179768Y-118105
X179891Y-102644
X179900Y-93300
X179900Y-99500
X179900Y-105300
X179950Y-105900
X180000Y-80500
X180100Y-108000
X180200Y-110400
X180268Y-111705
X180300Y-92700
X180400Y-83000
X180400Y-102650
X180400Y-104100
X180500Y-84600
X180500Y-85400
X180500Y-99700
X180600Y-107600
X180605Y-114018
X180605Y-115693
X180700Y-92300
X180700Y-99100
X180700Y-100900
X180700Y-102000
X180700Y-109800
X180900Y-105700
X181000Y-80500
X181000Y-82100
X181000Y-91400
X181000Y-99600
X181268Y-111705
X181325Y-107275
X181368Y-118105
X181400Y-90800
X181400Y-110400
X181500Y-89900
X181500Y-104700
X181600Y-98900
X181700Y-109400
X181800Y-96400
X181800Y-98300
X181925Y-110875
X182000Y-80500
X182000Y-82200
X182100Y-98800
X182500Y-82900
X182500Y-83800
X182500Y-84700
X182500Y-85600
X182500Y-86500
X182700Y-97800
X182868Y-113605
X183000Y-80500
X183000Y-121500
X183050Y-100750
X183100Y-82100
X183168Y-115905
X183400Y-95000
X183450Y-110600
X183600Y-120600
X184000Y-80500
X184000Y-110000
X184000Y-111500
X184000Y-112500
X184000Y-121500
X184200Y-82100
X184200Y-87000
X184400Y-118300
X184400Y-119400
X184500Y-96300
X184500Y-97200
X184500Y-120500
X184700Y-82900
X184700Y-83800
X184700Y-84700
X184700Y-85600
X184700Y-95600
X184900Y-113200
X184900Y-116800
X185000Y-80500
X185000Y-110000
X185000Y-112500
X185000Y-121500
X185100Y-94200
X185100Y-119400
X185100Y-120500
X185150Y-99450
X185200Y-118300
X185250Y-87000
X185500Y-111000
X185600Y-96300
X185600Y-116800
X185700Y-82400
X185700Y-82900
X185800Y-101800
X185800Y-106400
X185900Y-93800
X186000Y-80500
X186000Y-110000
X186000Y-112500
X186000Y-121500
X186500Y-117000
X186500Y-118500
X186500Y-120000
X186700Y-104900
X186850Y-84600
X186850Y-85350
X186850Y-87550
X187000Y-80500
X187000Y-110000
X187000Y-111000
X187000Y-121500
X187228Y-98503
X187400Y-106400
X187500Y-116000
X187700Y-93500
X187700Y-94400
X187850Y-87700
X187950Y-86300
X188000Y-80500
X188000Y-90900
X188000Y-110000
X188000Y-112500
X188000Y-117000
X188000Y-118000
X188000Y-119000
X188000Y-120000
X188000Y-121500
X188300Y-95500
X188350Y-87700
X188500Y-111000
X188500Y-116000
X188550Y-85500
X188600Y-84550
X189000Y-80500
X189000Y-97900
X189000Y-110000
X189000Y-112500
X189000Y-121500
X189100Y-91900
X189195Y-116968
X189195Y-117468
X189195Y-117968
X189195Y-118468
X189195Y-118968
X189195Y-119468
X189195Y-119968
X189300Y-92700
X189300Y-95500
X189395Y-116468
X189395Y-120368
X189600Y-99400
X189650Y-86400
X189700Y-83500
X189895Y-116468
X189895Y-120368
X189900Y-94100
X189950Y-85250
X190000Y-80500
X190000Y-110000
X190000Y-111000
X190000Y-112500
X190000Y-121500
X190395Y-116468
X190395Y-120368
X190450Y-95000
X190450Y-97100
X190500Y-99300
X190750Y-85300
X190895Y-116468
X190895Y-120368
X191000Y-80500
X191000Y-110000
X191000Y-112500
X191000Y-121500
X191150Y-97100
X191200Y-95000
X191200Y-97900
X191395Y-116468
X191395Y-120368
X191400Y-104000
X191500Y-111000
X191700Y-85100
X191750Y-83550
X191895Y-116468
X191895Y-120368
X192000Y-80500
X192000Y-110000
X192000Y-112500
X192000Y-121500
X192100Y-88200
X192300Y-91700
X192395Y-116468
X192395Y-120368
X192450Y-96000
X192500Y-94750
X192500Y-97400
X192500Y-113000
X192895Y-120568
X192895Y-121168
X192950Y-83550
X192950Y-85050
X193000Y-80500
X193000Y-110000
X193000Y-111000
X193150Y-94700
X193150Y-96000
X193200Y-97500
X193200Y-99400
X193395Y-121568
X193500Y-113000
X194000Y-80500
X194000Y-97100
X194395Y-116068
X194395Y-121568
X194500Y-81000
X194500Y-82000
X194500Y-83000
X194500Y-84000
X194500Y-85000
X194500Y-86000
X194500Y-87000
X194500Y-88000
X194500Y-89000
X194500Y-90000
X194500Y-91000
X194500Y-92000
X194500Y-93000
X194500Y-94000
X194500Y-95000
X194500Y-96000
X194500Y-98000
X194500Y-99000
X194500Y-100000
X194500Y-101000
X194500Y-102000
X194500Y-103000
X194500Y-104000
X194500Y-105000
X194500Y-106000
X194500Y-107000
X194500Y-108000
X194500Y-109000
X194500Y-110000
X194500Y-111000
X194500Y-112000
X194500Y-113000
T2
X134900Y-116500
X134900Y-117200
X134900Y-117900
T3
X145370Y-116805
X161880Y-116805
T4
X128463Y-109799
X128463Y-114799
T5
X138400Y-90360
X138400Y-92400
X138400Y-94440
X138400Y-96480
X140180Y-89340
X140180Y-91380
X140180Y-93420
X140180Y-95460
T6
X125763Y-108799
X125763Y-115799
T7
X132090Y-83110
X132090Y-102710
T8
X144200Y-105700
T0
M30
